<?xml version="1.0" encoding="UTF-8"?><svg id="svg5" xmlns="http://www.w3.org/2000/svg" viewBox="0 0 3500 3500"><g id="layer1"><g id="g285"><path id="path3289" d="m3500,1750c0,964.52-780.42,1747.2-1744.94,1749.99S5.61,2724.64.03,1760.13C-5.55,795.62,770.32,8.44,1734.81.07c964.49-8.37,1753.91,765.22,1765.08,1729.68" fill="#ffd1d4" stroke-width="0"/><g id="g1347"><g id="g206"><g id="g202"><path id="path154" d="m939.78,1770c-44.44,162.19-229.16-71.94-229.62-231.1-189.88,159.16-66.7-272.96,0-328.71-168.82,56.12-18.76-155.29,101.19-266.7,45.08-41.86,85.93-69.55,104.05-63.66,412.62-381.25,696.79,1145.18,24.38,890.17Z" fill="#c98965" stroke-width="0"/><path id="path156" d="m955.69,1775.61c-19.96-39.1-34.5-84.36-39.29-134.04-166.88,49.95-166.88-86.02-88.32-210.58-198.26,41.4-132.11-96.59,28.7-339.37-115.83-10.3-108.09-77.09-45.45-148.12,45.08-41.86,85.93-69.55,104.05-63.66,407.73-376.73,694.02,1116.29,40.29,895.78h0Z" fill="#be7146" stroke-width="0"/><path id="path158" d="m888.36,1839.53c-2.97,0-5.75-.22-8.28-.55-74.58-9.91-168.69-154.28-182.89-271.68-28.1,19.25-50.8,25.39-69,18.75-16.71-6.08-27.38-21.73-31.75-46.51-12.93-73.52,33.19-230.49,77.4-305.77-17.66,1.67-36.06-.9-46.6-15.24-18.42-25.06-1.46-74.2,50.37-146.03,35.62-49.37,83.7-103.3,128.59-144.24,61.38-56,90.67-64.32,104.59-64.14,82.44-73.05,170.25-79.62,247.91-18.3,84.97,67.1,153.7,210.94,183.84,384.77,30.56,176.32,13.29,344.8-46.22,450.7-49.05,87.29-148.9,175.51-347.25,107.71-15.99,41.92-42.03,50.54-60.72,50.54h.01Zm-178.25-315.42c2.1,0,4.23.45,6.2,1.38,5.19,2.41,8.51,7.6,8.53,13.32.38,113.46,98.06,262.83,159.13,270.94,7.09.94,28.58,3.78,41.56-43.63,1.09-3.99,3.81-7.33,7.49-9.22s7.98-2.14,11.86-.71c149.15,55.37,261.78,24.46,325.73-89.36,56.29-100.18,72.31-261.38,42.87-431.22-28.49-164.37-94.8-304.87-173.05-366.66-68.54-54.12-140.88-46.83-215.01,21.67-3.91,3.62-9.48,4.83-14.55,3.19-5.05-1.37-33.14,7.44-93.38,64.15-46.66,43.93-95.77,101.1-128.14,149.2-40.76,60.54-42.88,87.93-38.29,93.96,2.96,3.9,17.74,7.23,54.39-4.96,6.71-2.22,14.08.62,17.53,6.8s2.02,13.94-3.4,18.49c-38.7,32.44-108.73,229.66-94.08,312.96,1.65,9.39,5.21,21.15,12.8,23.91,5.37,1.96,22.2,2.88,62.34-30.78,2.7-2.27,6.07-3.45,9.48-3.45h0Z" fill="#28150f" stroke-width="0"/><path id="path160" d="m2802.8,1534.03c27.23,84.73-61.83,327.6-134.13,211.32-26.77,75.29-263.45,186.5-225.21,26.59-249.03,62.46-362.1-123.64-375.35-347.75-19.41-327.32,174.24-735.7,468.27-568.45,66.27-21.28,444.36,373.23,247.84,354.37,66.6,55.94,192.92,450.6,18.59,323.92h0Z" fill="#c98965" stroke-width="0"/><path id="path162" d="m2669.6,1416.82c85.55,175.53,0,351.06-105.24,279.49-10.03,56.58-28.15,110.85-50.14,154.83-56.37,11.11-86.38-13.87-70.75-79.21-249.03,62.46-362.1-123.64-375.35-347.75,17.11-305.61,201.29-628.25,468.27-476.45,22.63-7.26,81.42,33.76,141.4,90.34,2.76,38.55-21.99,62-83.35,48.94,196.51,130.54,280.13,380.78,75.16,329.81h0Z" fill="#be7146" stroke-width="0"/><path id="path164" d="m2490.38,1868.36c-8.71,0-16.88-1.02-24.3-3.22-18.48-5.48-46.07-22.32-40.92-73.99-173.45,34.94-264.35-52.34-310.42-133.73-56.7-100.17-76.26-247.09-53.67-403.1,22.41-154.82,81.78-290.03,162.88-370.96,90.26-90.09,202.01-105.25,315.14-42.98,55.4-3.89,176.58,117.39,229.15,179.89,49.5,58.85,103.82,137.9,81.49,180.39-6.56,12.46-18.26,20.27-34.96,23.34,52.49,78.22,120.43,278.25,76.99,333.79-10.99,14.05-31.59,24.57-69.48,5.61,3.28,77.09-38,198.26-90.98,222.77-13.18,6.09-36.76,10.89-60.71-14.1-34.15,47.02-119.85,96.28-180.22,96.29h0Zm-46.95-111.21c3.83,0,7.57,1.49,10.37,4.26,3.67,3.63,5.17,8.9,3.97,13.91-12.61,52.86,9.45,59.4,16.7,61.55,4.9,1.45,10.41,2.13,16.37,2.13,55.33,0,149.69-58.58,163.97-98.62,1.91-5.33,6.69-9.1,12.32-9.71,5.62-.63,11.1,2.06,14.1,6.88,18.96,30.52,32.57,24.23,37.71,21.85,44.68-20.67,89.09-161.03,69.89-220.86-1.95-6.07.23-12.71,5.4-16.45,5.16-3.74,12.16-3.73,17.31.02,13.56,9.86,46.26,31.29,57.02,17.51,12.21-15.61,12.09-71.02-15.68-159.61-22.57-71.98-56.14-140.18-78.1-158.62-4.94-4.16-6.61-11.04-4.11-16.99,2.5-5.95,8.61-9.56,15.01-8.97,11.92,1.15,32.71,1.56,37.99-8.48,8.86-16.86-11.81-69.06-77.96-147.69-38.11-45.31-83.74-90.43-125.2-123.8-51.89-41.76-75.05-47.14-79.57-45.66-3.94,1.27-8.21.83-11.81-1.22-130.87-74.44-226.85-21.69-284.32,35.65-162.26,161.92-215.91,541.6-104.38,738.66,61.54,108.73,165.07,148.39,299.43,114.7,1.19-.3,2.39-.44,3.59-.44v.03Z" fill="#28150f" stroke-width="0"/><path id="path166" d="m2696.74,2365.96H814.16c-27.47-41.33-11.27-99.38,15.34-141.21v-.06c29.32-47.11,77.06-90.6,130.03-109.21-25.96,0-62.16-7.52-55.37-32.43,0-8.25,12.6-22.91,18.49-28.79h.06c25.01-25.01,74.53-50.93,125.86-55.26-30.65-5.11-54.32-16.03-39.15-43.33,2.93-2.93,4.04-14.04,46.8-47.72,50.65-37.98,119.56-81.45,119.62-81.55,1.63-1.05,5.88-3.92,8.84-5.86h.06c3.07-2.22,10.58-7.02,21.53-15.29,17.01-32.96,50.81-61.3,83.13-78.47h.06c94.21-53.15,233.99-74.17,343.04-80.69h.05c5.43-.28,10.79-.6,16.1-.86,176.45-8.56,345.22,14.12,458.27,47.66h.06c25.56,7.59,48.22,15.29,73.21,25.7.06,0,.06.06.11.06h.06c.96.29,18.55,7.8,34.17,15.62l.05.06c21.49,10.82,44.12,24.52,62.31,39.75.04,0,.08.02.11.06l.06-.06v.11c17.21,14.23,32.9,30.82,43.33,50.59v.06c2.06,1.3,4.12,2.65,6.24,4.07,1.2.4,19.62,13.77,23.1,16.59,3.08,2.14,7.17,5.63,12.37,9.76,4.51,3.49,12.56,10.41,17.19,14.48,3.09,2.7,4.51,4.02,7.43,6.67,98.35,89.2,97.62,130.25,97.99,130.8,1.91,25.36-30.8,19.24-31.5,19.58-13.8-1.55-24.79-5.13-29.45-6.29,189.8,63.67,240.35,154.02,129.17,130.2,55.07,34.31,101.9,106.8,127.05,166.91v.06h.06c8.69,20.65,15.68,43.45,16.76,48.32l-.02-.03Z" fill="#feecde" stroke-width="0"/><path id="path168" d="m2696.74,2380.71H814.1c-4.93,0-9.54-2.47-12.28-6.59-14.65-22.04-19.77-50.07-14.81-81.09.15-1.09.4-2.52.66-3.93.18-.96.36-2,.6-3.01.19-.99.4-1.98.63-2.94l.22-.98c.13-.59.29-1.25.44-1.91l.25-1.04c.07-.31.15-.63.23-.93l.75-2.67c.27-1.08.58-2.17.89-3.26.69-2.3,1.43-4.64,2.17-6.93l1.45-4.11c.31-.95.75-2.09,1.18-3.24l.32-.88c2.03-5.29,4.34-10.63,7.14-16.46l.8-1.59c1.1-2.2,2.21-4.43,3.4-6.62,1.29-2.48,2.76-5.24,4.35-7.95l.8-1.34c.42-.71.86-1.44,1.26-2.15,16.42-27.48,38.33-53.15,63.54-74.53,11.07-9.38,22.56-17.71,34.29-24.89-4.46-2.08-8.25-4.5-11.44-7.33-.22-.2-.43-.4-.64-.61-.42-.35-.86-.79-1.31-1.25-7.88-7.88-11.34-18.33-9.78-29.51.1-.84.24-1.67.42-2.51.11-.66.26-1.32.44-1.97.17-.72.36-1.42.57-2.1.26-.9.65-2.1,1.13-3.38.61-1.55,1.22-2.95,1.93-4.34,1.18-2.57,2.78-5.41,4.71-8.29,3.08-4.69,6.97-9.47,11.52-14.14l.75-.76c.6-.61,1.19-1.21,1.8-1.79,3.06-3.04,6.33-5.99,9.74-8.76l.79-.64c.7-.57,1.41-1.15,2.14-1.71,1.64-1.3,3.6-2.79,5.61-4.29,1.83-1.31,3.45-2.47,5.06-3.56.04-.03.08-.05.12-.08.21-.16.49-.36.63-.46,2.82-1.92,5.8-3.78,8.84-5.64.75-.49,1.53-.95,2.34-1.4,1.59-.96,3.24-1.93,4.89-2.83,1.94-1.08,3.93-2.19,5.98-3.24,1.04-.57,2.41-1.29,3.8-1.96,1.06-.56,2.07-1.08,3.14-1.56,3.44-1.71,6.98-3.33,10.55-4.83.91-.41,2.19-.93,3.47-1.44,1.43-.6,2.93-1.24,4.42-1.81,1.72-.67,3.49-1.35,5.3-1.98,2.72-1.05,5.5-2.01,8.34-2.89.48-.16.97-.32,1.48-.48-8.43-8.76-9.95-18.75-8.86-27.39.11-.99.28-1.99.45-2.89.22-1.07.39-1.88.63-2.76.55-2.05,1.33-4.29,2.36-6.74.07-.16.14-.3.2-.46.81-1.74,1.68-3.55,2.68-5.36.15-.27.29-.51.45-.77,20.63-35.72,88.86-80.18,143.68-115.9l1.24-.81c4.96-3.22,9.79-6.36,14.48-9.46.21-.14.41-.27.63-.39.24-.14.47-.29.69-.45.2-.15.4-.29.61-.42l2.18-1.43c2.23-1.46,4.43-2.9,6.58-4.34.26-.19.51-.36.79-.54,1.51-.97,2.77-1.78,3.99-2.63l3.75-2.5c.31-.25.65-.48.99-.71l4.47-2.98c4.99-3.43,9.63-6.73,13.73-9.77,15.78-28.56,45.12-55.7,87.28-80.71,6.32-3.75,12.98-7.46,20.37-11.33,82.2-43.31,196.39-74.91,321.51-88.95,6.6-.77,13.3-1.43,20.06-2.08,114.82-11.04,336.05-15.62,527.87,77.77h0s.1.05.15.07c41.19,19.96,82.4,46.07,113.28,71.74.74.5,1.43,1.06,2.05,1.68,19.65,16.4,34.14,33.08,44.17,50.88,50.19,32.57,108.76,90.48,137.24,128.7,28.68,37.91,37.47,63.93,27.6,81.79-1.21,2.18-2.62,4.15-4.26,5.92,88.01,38.34,141.63,83.72,132.77,116.04-2.44,8.89-9.32,17.9-26.34,21.12,13.68,13.13,27.06,28.6,40.02,46.31,3.09,4.22,6.07,8.49,9,12.83l3.11,4.59c.29.41.55.85.8,1.29l.22.29c.1.14.2.29.29.42,8.89,13.64,17.16,27.8,24.58,42.09,5.59,10.59,11.64,23.41,16.62,35.24.13.27.26.54.37.82,6.79,16.15,12.97,33.96,17.39,50.16,1.21,4.43.29,9.18-2.51,12.83-2.79,3.66-7.13,5.8-11.72,5.8v-.02Zm-1874.19-29.49h1854.31c-3.02-9.05-6.43-18.2-10.05-26.86-.29-.54-.53-1.11-.74-1.69-4.67-11.1-10.34-23.13-15.61-33.1-6.99-13.45-14.73-26.7-23.05-39.47-.47-.68-.93-1.37-1.37-2.09l-2.83-4.18c-2.8-4.15-5.56-8.11-8.43-12.02-22.49-30.71-45.94-53.79-69.71-68.59-6.07-3.78-8.55-11.4-5.87-18.04,2.68-6.64,9.73-10.39,16.76-8.9,26.72,5.73,37.16,3.18,40.25,1.97-3.21-14.82-56.39-63.24-177.19-103.77-7.51-2.52-11.68-10.52-9.47-18.12,2.23-7.6,10.07-12.09,17.72-10.17.98.25,2.23.59,3.69.99,5.38,1.48,13.45,3.72,23.15,4.88.67.02,1.25.07,1.71.11,12.13,1.04,14.76-1.48,14.79-1.51,0,0,4.01-10.84-25.43-49.75-27.57-37-84.71-93.28-132.7-123.59-2.46-1.55-4.35-3.76-5.53-6.33-8.31-15.49-21.03-30.23-38.87-45.06-.23-.17-.45-.34-.68-.53-29.23-24.47-68.7-49.51-108.29-68.7-.07-.03-.14-.07-.2-.1-137.35-66.85-319.19-93.45-512.05-74.9-6.56.64-13.09,1.28-19.56,2.02-119.83,13.46-233.22,44.71-311.13,85.76-6.94,3.64-13.15,7.09-19.03,10.59-38.86,23.05-65.03,47.26-77.78,71.96-1.01,1.96-2.46,3.67-4.21,4.99-5.05,3.81-10.96,8.06-17.57,12.6l-3.79,2.54c-.33.27-.68.51-1.04.75l-4.24,2.8c-1.1.79-2.52,1.71-3.97,2.64-.37.28-.77.54-1.16.79-2.2,1.47-4.45,2.95-6.74,4.44l-1.88,1.23c-.77.54-1.58,1.08-2.4,1.58-4.66,3.07-9.45,6.18-14.37,9.39l-1.22.8c-49.5,32.25-117.31,76.44-134.29,106.03,0,0-.02.03-.02.04-.11.19-.24.42-.41.71-.47.88-.89,1.76-1.29,2.61-.46,1.12-.8,2.04-1,2.83l-.14.64c-.02.21-.11.68-.13.88-1.01,7.66,21.65,12.38,26.2,13.25,1.6.29,3.43.6,5.31.91,7.33,1.23,12.6,7.72,12.3,15.15-.3,7.43-6.08,13.47-13.5,14.09-4.13.34-8.33.86-12.45,1.5-1.73.27-3.14.48-4.54.78-4.92.89-9.65,1.95-14.47,3.2l-4.52,1.25c-.2.05-.38.1-.58.15-.25.06-.49.14-.73.22-2.22.68-4.05,1.24-5.88,1.85-2.52.8-4.75,1.54-6.92,2.4-.2.08-.39.15-.59.22-1.56.53-3.06,1.12-4.57,1.71-1.24.47-2.45.98-3.65,1.49-1.32.53-2.21.88-3.1,1.29-3.42,1.44-6.46,2.84-9.4,4.31-.2.1-.4.2-.61.29-.64.29-1.23.61-1.83.92-.19.1-.43.23-.63.31-1,.48-2.01,1-2.96,1.53-2.06,1.07-3.76,2.02-5.47,2.97-1.44.8-2.85,1.62-4.2,2.44-.21.12-.4.24-.61.35l-.56.3c-.25.18-.28.2-.53.35-2.62,1.6-5.2,3.2-7.64,4.85-.38.29-.78.56-1.18.83-1.38.93-2.75,1.93-4.13,2.91-1.57,1.17-3.3,2.5-4.98,3.81-.65.49-1.02.81-1.39,1.11l-1.01.83c-2.61,2.12-5.2,4.45-7.59,6.84-.13.13-.25.25-.37.36-.34.31-.66.65-.98.98l-.84.86c-3.12,3.2-5.83,6.53-7.94,9.73-1.13,1.69-2.01,3.25-2.74,4.84-.47.95-.72,1.51-.93,2.06-.11.3-.26.73-.37,1.13l-.19.62c-.04.23-.08.42-.13.62-.05.25-.1.5-.17.75-.02.11-.03.21-.04.31-.35,2.39.25,3.5,1.47,4.71.1.1.19.2.29.29.18.16.33.29.48.44,1.07.9,3.12,2.24,6.87,3.67.38.15.71.28,1.03.36,1.21.37,1.98.61,2.8.86.63.19,1.28.37,1.94.52,2.94.73,5.98,1.29,9.65,1.78l2.29.27c1.35.15,3.05.34,4.84.43.29,0,.58.04.86.07.69.08,1.39.11,2.11.15l3.45.16c.97.04,1.99.09,3.01.09,7.19,0,13.32,5.18,14.54,12.27s-2.86,14.01-9.64,16.39l-1.27.44c-1.49.52-3.01,1.05-4.48,1.61l-.65.27c-.9.36-1.84.72-2.72,1.12-.19.08-.38.16-.57.24-1.37.54-2.74,1.13-4.11,1.72-1.03.45-2.06.91-3.13,1.43-3.7,1.73-7.16,3.48-10.42,5.23-13.59,7.4-27.04,16.7-39.92,27.6-22.75,19.3-42.51,42.42-57.12,66.86-.34.61-.88,1.52-1.43,2.42l-.69,1.17c-1.34,2.27-2.58,4.61-3.76,6.89-1.14,2.1-2.09,4.01-3.03,5.9l-.71,1.43c-2.33,4.88-4.34,9.5-6.04,13.92l-.32.86c-.29.79-.59,1.55-.86,2.36l-1.43,3.98c-.58,1.79-1.24,3.89-1.86,5.95-.19.62-.38,1.27-.53,1.91-.05.2-.1.39-.16.59l-.7,2.52c-.11.49-.23.98-.34,1.46l-.58,2.52c-.13.56-.27,1.13-.36,1.71-.07.38-.15.78-.24,1.15-.14.55-.23,1.13-.33,1.71-.2,1.08-.38,2.04-.51,3.01-2.39,14.95-2.93,35.47,6.36,53.86l.03-.02Zm95.53-263.57h0Zm.44-1.43v.02-.02Zm.39-3.16v.05-.05Zm17.48-58.73s-.02,0-.03.02c0,0,.02,0,.03-.02Zm.04-.02s-.03.02-.04.02c0,0,.03,0,.04-.02Z" fill="#28150f" stroke-width="0"/><path id="path170" d="m2549.95,1297.18c85.62,175.6,0,351.12-105.21,279.5-33.44,189.16-157.99,353.71-213.66,188.25,5.85,117.87-234.98,255.33-234.98,114.87-40.99,89.38-142.83,122.68-248.98,50.58-73.3,63.45-184.91,73.31-232.04-44.7-36.29,106.43-215.57,44.7-236.59-111.14,21.03,155.84-220.05,18.37-242.52-215.81-166.82,49.95-166.82-85.96-88.31-210.5-198.27,41.37-132.06-96.67,28.75-339.43-236.88-21.15,42.99-278.63,253.2-324.53-146.68-91.57,18.98-218.59,228.84-129.56-33.8-178.76,161.36-156.29,288.66,28.63,109.67-190.29,315.39-237.38,264.33-36.05,290.26-44.47,363.35,27.79,231.55,130.39,254.72,6.67,425.69,331.12,231.83,289.75,196.54,130.52,280.11,380.8,75.12,329.75h.01Z" fill="#fefefe" stroke-width="0"/><path id="path172" d="m1515.08,1885.69c47.13,118,158.75,108.15,232.04,44.7,106.15,72.1,207.99,38.8,248.98-50.58,0,140.47,240.83,3,234.98-114.87,55.68,165.46,180.22.91,213.66-188.25,64.47,43.89,121.5-5.09,136.37-89.95-4.99-31.41-15.03-64.49-31.16-97.57,11.3,2.81-1618.98,54.53-1602.29,51.05-19.65,31.17-34.38,63.05-42.81,92.56,16.1,33.68,57.21,48.07,131.12,25.95,22.47,234.18,263.54,371.65,242.52,215.81,21.03,155.84,200.31,217.57,236.59,111.14h0Z" fill="#efc1a3" stroke-width="0"/><path id="path174" d="m2623.87,1209.03c-33.99-52.91-85.61-107.48-149.03-149.6,47.71,10.18,73.28-1.82,80.98-25.76-25.02-25.02-55.16-49.09-80.98-66.23,20.86,4.45,47.92,6.68,65.69-5.32.87-.59,1.61-1.29,2.42-1.94-11.69-23.9-29.68-49.52-52.76-73.97-5.06-3.64-10.1-7.29-15.34-10.77,2.02.43,3.87.7,5.81,1.05-57.17-56.38-141.4-104.29-237.65-106.8,40.67-31.66,61.76-60.41,63.05-83.76-4.88-1.14-9.79-2.16-14.75-3.09-.55-.1-1.11-.2-1.67-.29-4.23-.77-8.49-1.43-12.79-2.02-1.11-.16-2.22-.3-3.33-.45-3.87-.49-7.77-.89-11.69-1.25-1.25-.11-2.48-.25-3.73-.34-5-.38-10.04-.67-15.11-.81,4.37-3.41,8.41-6.76,12.35-10.1,1.57-1.34,3.09-2.67,4.58-4,2.1-1.86,4.09-3.7,6.04-5.52,4.57-4.31,8.87-8.56,12.68-12.72-41.48-21.99-130.07-27.05-267.2-6.05,10.32-40.68,10.02-71.07,2.28-92.33-.78.12-1.5.21-2.28.32.35-1.41.57-2.67.9-4.05-33.53-78.5-179.02-17.49-265.23,132.1-127.3-184.93-322.45-207.4-288.66-28.63-117.3-49.77-220.73-32-263.59,9.31,1.04,1.15,2.25,2.3,3.38,3.45,1.49,1.53,2.98,3.06,4.62,4.58,1.41,1.31,2.94,2.61,4.45,3.91,1.97,1.68,4.01,3.35,6.17,5.01,1.35,1.05,2.69,2.09,4.12,3.14,3.77,2.74,7.71,5.47,12.01,8.16-4.3.93-8.62,1.98-12.96,3.1-1.07.28-2.15.58-3.22.86-3.4.9-6.8,1.83-10.23,2.83-1.01.29-2.03.61-3.06.91-3.64,1.09-7.27,2.22-10.93,3.42-.74.25-1.47.48-2.21.73-4.1,1.37-8.21,2.79-12.34,4.28-.23.08-.44.16-.67.24-.04,24.58,16.72,51.34,55.62,75.63-89.73,19.6-192.12,77.74-261.63,139.6,2.76.33,5.5.68,8.41.93-18.8,28.39-36.24,55.27-52.19,80.67.54.13,17.93,8.27,52.19,11.32-15.95,24.09-37.69,57.42-52.19,80.68,13.44,5.49,30.66,9.4,52.19,11.31-40.45,61.06-74.85,115.44-100.61,162.05,18.4,1.65,42.06-.39,71.86-6.62-20.99,33.29-36.29,67.36-44.37,98.51.57-.04,1.11-.06,1.69-.11,2.4-.2,4.85-.42,7.36-.7,4.16-.46,8.42-.99,12.91-1.68,1.66-.25,3.41-.55,5.12-.84,5.56-.93,12.28,4.92,9.89,8.99-.61,1.03-1.16,2.07-1.76,3.11-1.77,3.08-3.52,6.15-5.19,9.23-.56,1.04-1.08,2.07-1.63,3.12-11.21,21.13-20.25,42.28-26.74,65.08.89,1.87,1.89,3.67,2.95,5.41,11.88-1.1,25-3.05,39.78-6.13-5.88,9.33-11.25,18.71-16.22,28.07,22.47,11.71,56.55,12.8,104.52-1.57,22.47,234.18,263.54,371.65,242.52,215.81,21.03,155.84,200.31,217.57,236.59,111.14,47.13,118,158.75,108.15,232.04,44.7,106.15,72.1,207.99,38.8,248.98-50.58,0,140.47,240.83,3,234.98-114.87,55.68,165.46,180.22.91,213.66-188.25,52.83,35.97,100.65,9.54,124.38-47.86-5.06-15.77-11.39-31.71-19.17-47.65,11.3,2.81,21.58,4.56,31.15,5.62v-.05c-3.97-25.03-10.93-49.55-20.18-72.78-3.29-8.25,10.62-20.23,20.19-19.17-4.98-31.43-15.03-64.52-31.17-97.61,31.09,7.75,55.49,8.5,73.92,3.84v.06Z" fill="#feecde" stroke-width="0"/><path id="path176" d="m1634.07,1991.46c-11.01,0-21.82-1.25-32.27-3.78-26.5-6.45-61.29-23.89-87.32-69.28-19.19,25.55-49.88,38.21-86.73,34.6-54.24-5.29-115.94-46.28-146.61-115.15-2.64,3.27-5.46,5.88-8.21,7.95-17.29,13-42.83,13.11-71.92.29-73.89-32.56-158.88-136.6-177.64-268.66-72.7,17.57-107.32-3.23-123.68-24.78-29.1-38.32-21.16-108.76,19.36-184.55-51,6.56-82.7-1.62-98.63-25.1-33.82-49.89,21.64-156.41,130.76-322.7-62.45-11.45-78.18-42.22-79.77-67.41-5.77-91.48,176.73-230.23,324.67-275.05-35.56-31.23-46.44-67.83-28.89-101.57,31.25-60.06,145.97-89.55,273.35-44.35-4.11-53.47,13.9-92.01,51.11-107.52,68.73-28.63,175.45,27.79,254.44,132.33,69.62-108.11,177.22-175.42,242.51-148.92,23.03,9.35,57.23,37.5,41.81,121.82,163.57-22.69,264.95-8.01,286.39,41.79,8.48,19.68,7.41,51.09-37.56,94.5,129.35,18.04,238.03,112.18,278.76,199.56,19.24,41.28,20.18,76.14,2.65,98.15-6.88,8.64-18.45,17.43-37.79,20.76,113.04,91.05,184.28,221.52,153.45,291.46-8.93,20.27-33.68,50.1-101.5,41.16,45.73,114.9,23.84,224.91-27.63,269.46-26.77,23.17-59.44,27.56-91.89,13.04-25.47,119.12-90.23,243.08-158.14,248.16-17.53,1.34-40.16-4.83-59.96-34.92-17.3,44.32-57.82,84.98-98.79,110.49-48.87,30.41-95.62,38.82-125.04,22.47-8.33-4.63-17.56-12.47-23.96-25.72-21.54,28.82-50.55,49.15-84.3,58.56-48.92,13.65-104.3,3.03-156.97-29.88-35.41,27.82-75.89,42.82-114.08,42.82h.02Zm-118.98-120.52c6.02,0,11.45,3.67,13.69,9.28,17.17,43,44.84,70.25,79.99,78.8,40.42,9.84,88.56-5.02,128.7-39.78,5.04-4.37,12.4-4.81,17.94-1.05,48.11,32.68,98.46,44.03,141.79,31.94,37.29-10.41,67.66-37.57,85.51-76.47,2.88-6.3,9.79-9.73,16.54-8.26,6.77,1.48,11.6,7.48,11.6,14.41,0,20.41,5.67,33.9,16.85,40.11,19.32,10.73,56.67,2.2,95.14-21.73,46.77-29.1,95.99-82.99,93.54-132.52-.36-7.35,4.75-13.85,11.98-15.22,7.25-1.37,14.37,2.81,16.72,9.79,9.25,27.47,25.46,59.79,49.89,58.01,44.06-3.3,111.28-108.41,135.27-244.13.86-4.92,4.18-9.07,8.79-11.02s9.89-1.42,14.03,1.4c27.26,18.56,53.15,18.44,74.86-.34,45.93-39.76,62.37-150.66,8.8-260.5-2.51-5.15-1.82-11.28,1.79-15.74,3.61-4.45,9.48-6.42,15.02-5.03,35.97,8.95,81.77,12.95,95.83-18.93,25.16-57.08-50.71-196.59-182.67-284.23-5.9-3.91-8.18-11.47-5.44-18,2.74-6.52,9.72-10.16,16.67-8.7,29.5,6.3,50.7,3.55,59.68-7.76,9.9-12.42,7.53-37.59-6.32-67.32-34.85-74.81-147.46-181.82-288.67-185.52-6.22-.17-11.68-4.22-13.62-10.13-1.95-5.92.03-12.41,4.94-16.24,42.91-33.41,63.77-64.42,55.78-82.96-11.84-27.48-91.25-49.53-276.04-21.22-4.9.76-9.82-1-13.14-4.66-3.32-3.66-4.59-8.74-3.38-13.53,14.7-57.94,7.54-97.51-19.66-108.54-48.93-19.87-152.4,42.44-217.61,155.59-2.53,4.38-7.13,7.17-12.19,7.37-5.01.19-9.87-2.2-12.73-6.37-78.23-113.66-181.34-161.21-231.99-140.1-29.29,12.21-39.97,47.85-30.04,100.37,1.01,5.34-1,10.81-5.24,14.22s-10.02,4.21-15.01,2.09c-130.89-55.53-236.44-22.48-259.36,21.59-13.56,26.09,2.5,55.94,44.08,81.9,5.09,3.17,7.75,9.11,6.72,15.03-1.02,5.91-5.52,10.61-11.38,11.88-159.09,34.74-336.35,182.29-331.93,252.36,1.9,30.11,42.87,40.04,76.89,43.08,5.17.46,9.72,3.62,11.97,8.3,2.26,4.68,1.88,10.2-.99,14.53-56.74,85.65-174.8,263.89-143.88,309.5,10.95,16.16,45.47,18.71,99.83,7.36,5.82-1.22,11.75,1.16,15.13,6.02,3.37,4.87,3.52,11.27.36,16.28-46.13,73.17-61.33,146.65-36.99,178.72,21.65,28.49,71,21.05,108.59,9.8,4.23-1.26,8.8-.57,12.45,1.89,3.67,2.46,6.03,6.44,6.45,10.82,13.15,137.04,102.78,235.58,162.24,261.78,18.62,8.21,34.03,9.34,42.3,3.13,8.7-6.55,11.79-22.77,8.69-45.72-.09-.66-.14-1.32-.14-1.97,0-7.27,5.37-13.61,12.77-14.62,8.05-1.06,15.49,4.57,16.58,12.64,11.79,87.32,79.16,145.39,137.5,151.08,20.19,1.97,56.28-.95,70.52-42.72,2-5.84,7.41-9.82,13.57-9.98h.38l.04-.06Z" fill="#28150f" stroke-width="0"/><path id="path178" d="m1646.87,1196.77s-185.06-82.39-319.67,32.24c-163.33,294.26-170.23,60.93-111.97-151.18,53.86-196.1,222.74-352.93,308.98-206.21,172.74-58.11,163.28,155.94,122.66,325.16h0Z" fill="#d5a288" stroke-width="0"/><path id="path180" d="m1852.81,1196.77s179.7-71.73,318.34,50.84c71.47,120.14,153.42,49.71,42.39-149.66,71.38,31.41,37.13-44.58-25.53-142.68-59.5-82.56-142.83-110.28-204.04-19.74-170.39-47.28-167.42,112.18-131.17,261.23h0Z" fill="#d5a288" stroke-width="0"/><path id="path182" d="m1747.16,1304.68h-.18c-5.15-.06-9.9-2.81-12.52-7.25-43.65-73.97-125.1-115.56-223.27-114.59-98.49,1.15-189.35,46.07-226.08,111.78-3.97,7.1-12.96,9.64-20.06,5.67s-9.64-12.95-5.67-20.06c41.71-74.61,142.77-125.61,251.47-126.88,1.44-.02,2.89-.03,4.31-.03,98.6,0,181.83,39.7,232.29,110.07,68.96-92.14,181.82-115.93,268.13-106.45,95.58,10.49,172.31,59.78,195.47,125.58,2.7,7.68-1.34,16.1-9.01,18.8-7.68,2.71-16.1-1.34-18.8-9.01-19.42-55.17-86.49-96.8-170.87-106.06-82.94-9.1-192.87,15.4-252.69,111.46-2.69,4.32-7.43,6.95-12.51,6.95v.02Z" fill="#28150f" stroke-width="0"/><path id="path184" d="m1550.97,1112.69c-8.15,0-14.74-6.61-14.74-14.74,0-41.03-33.38-74.41-74.41-74.41s-74.41,33.38-74.41,74.41c0,8.14-6.6,14.74-14.74,14.74s-14.74-6.61-14.74-14.74c0-57.29,46.61-103.9,103.9-103.9s103.9,46.61,103.9,103.9c0,8.14-6.6,14.74-14.74,14.74Z" fill="#28150f" stroke-width="0"/><path id="path186" d="m2121.66,1112.69c-8.15,0-14.74-6.61-14.74-14.74,0-41.03-33.38-74.41-74.41-74.41s-74.41,33.38-74.41,74.41c0,8.14-6.6,14.74-14.74,14.74s-14.74-6.61-14.74-14.74c0-57.29,46.61-103.9,103.9-103.9s103.9,46.61,103.9,103.9c0,8.14-6.6,14.74-14.74,14.74Z" fill="#28150f" stroke-width="0"/><path id="path188" d="m1879.63,1507.62c-14.8,107.99-73.1,249.02-142.68,249.02s-127.88-140.92-142.89-248.82c56.95-8.91,115.14-53.53,142.89-122.8,32.52,69.58,87.7,114.62,142.68,122.59h0Z" fill="#3a0f0a" stroke-width="0"/><path id="path190" d="m1870.83,1555.26c-22.88,97.64-74.24,201.39-133.88,201.39s-111.1-103.75-133.98-201.39c34.37-36.13,93.5-32.75,131.73,14.55,37.56-41.26,101.75-50.69,136.14-14.55Z" fill="#c40520" stroke-width="0"/><path id="path192" d="m1766.89,1597.32c25.82-4.81,47.62,20.36,39.44,45.31-17.43,53.19-46.43,100.89-79.24,100.89s-62.71-49.08-80.05-103.18c-7.77-24.25,12.84-48.78,37.97-44.69,14.49,2.36,29.01,10.57,40.59,24.91,11.28-12.39,26.22-20.43,41.28-23.24h0Z" fill="#fc061e" stroke-width="0"/><path id="path194" d="m1736.95,1771.39c-83.53,0-142.38-152.93-157.49-261.53-1.11-7.97,4.37-15.35,12.33-16.6,55.69-8.71,107.3-53.34,131.49-113.72,2.19-5.46,7.4-9.09,13.28-9.26,6.07-.03,11.28,3.17,13.77,8.5,29.43,62.98,79.79,106.76,131.45,114.25,8.01,1.16,13.59,8.57,12.49,16.59-14.48,105.57-74.48,261.76-157.29,261.76h-.02Zm-126.18-251.92c18.13,107.72,73.79,222.44,126.18,222.44s108.06-114.78,125.99-222.57c-48.24-12.16-93.84-49.29-125.3-101.65-28.7,51.11-75.53,88.92-126.87,101.79h0Z" fill="#28150f" stroke-width="0"/><path id="path196" d="m1572.8,1524.32c-55.74,0-102.13-33.24-124.11-90.74-2.91-7.61.89-16.13,8.5-19.04,7.62-2.9,16.13.9,19.04,8.5,20.34,53.17,62.44,78.77,115.49,70.23,55.75-8.72,107.36-53.35,131.54-113.73,2.19-5.46,7.4-9.09,13.28-9.26,6.07-.03,11.28,3.17,13.77,8.5,32.28,69.09,89.11,114.36,144.78,115.34,42.37.84,78.86-25.02,103.12-72.52,3.71-7.25,12.6-10.12,19.84-6.43,7.25,3.71,10.13,12.58,6.43,19.84-29.22,57.23-74.45,88.61-127.53,88.61-.79,0-1.57,0-2.37-.02-59.1-1.03-118.4-41.75-156.93-105.92-31.37,55.86-84.39,95.82-141.29,104.72-8,1.29-15.86,1.92-23.54,1.92h-.02Z" fill="#28150f" stroke-width="0"/><path id="path198" d="m1859.79,1256.36c0,67.87-70.28,133.25-122.89,133.25s-122.9-65.37-122.9-133.25,55.02-71.11,122.9-71.11,122.89,3.25,122.89,71.11Z" fill="#28150f" stroke-width="0"/><path id="path200" d="m1762.69,1244.44c0,9.65-23.02,17.49-51.42,17.49-68.01,0-68.73-34.97,0-34.97,28.4,0,51.42,7.82,51.42,17.49Z" fill="#fefefe" stroke-width="0"/></g><path id="path204" d="m3382.4,2380.71l-3264.76.1s-2.77-7.23-5.63-14.85c-2.76-7.36-5.49-14.74-5.49-14.74h3286.98s-5.2,13.95-5.55,14.93c-.3.83-5.54,14.56-5.54,14.56Z" fill="#28150f" stroke-width="0"/></g><g id="g220"><path id="path208" d="m2344.03,2385.95c.71,8.44,2.79,16.83,6.07,25.16,22.5,58.11,99.91,108.32,149.84,95.08,52.38-9.28,49.54-50.41,74.64-44.15,11.88,2.47,8.16,8.33,28.83,23.33.09,0,4.26,2.68,9.15,5.52,25.94,13.23,58.32,12.48,76.67,4.01,2.83-.48,12.84-6.04,15.53-7.72,26.3-16.71,23.14-31.32,39.67-32.53.9-.5,7.91-.04,12.18,3.01,3.2,1.81,4.12,3.88,7.58,7.62,63.68,72.67,171.49-7.8,195.26-80.94,3.36-10.35,5.06-20.64,4.68-30.29-4.34-108.29-151-293.63-322.34-286.76-175.39,7.04-310.31,214.92-297.77,318.63v.02Z" fill="#fefefe" stroke-width="0"/><path id="path210" d="m2350.1,2411.11c22.5,58.11,99.91,108.32,149.84,95.08,52.38-9.28,49.54-50.41,74.64-44.15,11.88,2.47,8.16,8.33,28.83,23.33.09,0,4.26,2.68,9.15,5.52,25.94,13.23,58.32,12.48,76.67,4.01,2.83-.48,12.84-6.04,15.53-7.72,26.3-16.71,23.14-31.32,39.67-32.53.9-.5,7.91-.04,12.18,3.01,3.2,1.81,4.12,3.88,7.58,7.62,63.68,72.67,171.49-7.8,195.26-80.94-32.6-107.98-164.09-250.57-314.75-244.52-151.76,6.09-271.97,160.81-294.6,271.28h0Z" fill="#feecde" stroke-width="0"/><path id="path212" d="m2347.67,2403.29c-.06.07-.06.13,0,.19,22.96,78.81,150.13,150.58,206.88,66.28,6.01-8.62,14.78-7.96,15.69-8.18.07.06.13.09.19.09,15.48.39,11.27,8.02,33,23.72.09,0,4.26,2.68,9.15,5.52,26.6,13.57,58.5,12.38,76.67,4.01,2.83-.48,12.84-6.04,15.53-7.72,26.3-16.71,23.14-31.32,39.67-32.53.9-.5,7.91-.04,12.18,3.01,3.2,1.81,4.12,3.88,7.58,7.62,25.57,29.08,50.89,26.87,59.71,28.72,53.04,4.69,124.52-61.07,137.67-116.57,0-.09,0-.19-.11-.36-2.53-10.3-6.09-21.02-10.49-31.9-35.78,74.08-153.71,135.72-198.41,11.37-18.04,84.91-139.99,134.34-181.61-1.41-44.04,126.55-145.06,98.72-215.73,16.16-3.42,11-5.95,21.69-7.56,31.97h0Z" fill="#efc1a3" stroke-width="0"/><path id="path214" d="m2484.89,2522.24c-6.04,0-12.26-.49-18.61-1.48-58.32-9.09-116.33-58.32-132.51-112.3-.34-.93-.6-1.92-.76-2.9-13.97-54.89,9.77-132.99,62.22-204.39,65.75-89.51,157.7-145.06,245.97-148.6,109.59-4.43,194.19,63.61,234.84,104.53,60.11,60.5,100.45,137.58,102.81,196.37,2.04,51.08-39.85,102.89-82.27,131.57-38.13,25.84-62.24,24.33-71.34,23.75l-.8-.05c-.7.05-1.41.04-2.09-.02-26.94-2.17-51.49-14.09-69.09-33.54l-1.65-1.81c-3.11-3.42-3.69-4.04-5.2-4.1-.39.06-.8.09-1.2.11-1.61.12-1.68.13-5.78,5.43-4.75,6.14-11.92,15.42-26.77,24.84-.63.39-11.09,6.82-18.3,9.12-20.77,9.07-56.88,11.4-88.49-4.75-.2-.1-.4-.21-.6-.32-3.34-1.91-6.34-3.78-8.12-4.89l-.82-.51c-.53-.29-1.05-.62-1.54-.97-10.45-7.55-15.86-13.69-19.45-17.75-1.01-1.16-2.27-2.58-2.82-3.03-.05.05-.83-.11-2.49-.16h0c-1.54.14-2.45.43-3.4,1.8-19.36,28.75-47.98,44.04-81.74,44.04h0Zm341.19-13.68c-.39.07-.79.12-1.19.16.47-.03.86-.1,1.19-.16Zm-463.99-108.32c12.88,42.44,62.43,84.16,108.73,91.38,21.15,3.29,50.71.75,71.49-30.11,4.34-6.23,12.26-13.6,26.06-14.57,1.32-.17,2.64-.16,3.94.03,13.19.72,18.99,6.13,25.13,13.09,2.97,3.36,6.64,7.53,14.07,12.96.45.27.87.53,1.29.8,1.48.93,3.98,2.5,6.77,4.1,22.08,11.15,49.17,10.19,63.51,3.6.86-.4,1.77-.71,2.69-.93,2.26-.88,8.67-4.33,11.24-5.93,10.33-6.55,14.97-12.56,19.08-17.87,5.2-6.73,11.63-15.05,25.56-16.66.78-.16,1.57-.26,2.37-.29,16.31-.65,23.57,7.3,29.39,13.69l1.58,1.73c12.29,13.57,29.95,22.22,48.73,23.99,1.14,0,2.25.04,3.39.12,6.36.4,23.16,1.46,52.95-18.73,34.52-23.33,70.93-66.45,69.34-105.98-2.04-51.02-39.93-122.06-94.26-176.76-37.25-37.49-114.32-99.86-212.74-95.85-79.38,3.18-162.89,54.25-223.39,136.6-47.04,64.04-69.45,135.01-57.1,180.82.07.27.14.52.19.79v-.02Zm324.74,80.13c-.22.03-.46.08-.75.15.25-.06.5-.1.75-.15Zm-118.5-33.42c-.87.09-1.61.29-2.04.42.68-.19,1.37-.32,2.04-.42Z" fill="#28150f" stroke-width="0"/><path id="path216" d="m2744.65,2469.36c-.4,0-.82-.02-1.23-.05-8.12-.68-14.14-7.79-13.48-15.91l8.87-106.78c.68-8.11,7.77-14.13,15.91-13.48,8.12.68,14.15,7.79,13.48,15.91l-8.87,106.78c-.64,7.7-7.09,13.53-14.68,13.53h0Z" fill="#28150f" stroke-width="0"/><path id="path218" d="m2568.67,2476.42c-.4,0-.82-.02-1.23-.05-8.12-.68-14.14-7.79-13.48-15.91l8.87-106.78c.67-8.11,7.84-14.13,15.91-13.48,8.12.68,14.14,7.79,13.48,15.91l-8.87,106.78c-.64,7.7-7.09,13.53-14.68,13.53h0Z" fill="#28150f" stroke-width="0"/></g><g id="g234"><path id="path222" d="m1129.77,2385.95c-.71,8.44-2.79,16.83-6.07,25.16-22.5,58.11-99.91,108.32-149.84,95.08-52.38-9.28-49.54-50.41-74.64-44.15-11.88,2.47-8.16,8.33-28.84,23.33-.09,0-4.25,2.68-9.15,5.52-25.94,13.23-58.33,12.48-76.67,4.01-2.83-.48-12.84-6.04-15.53-7.72-26.3-16.71-23.14-31.32-39.67-32.53-.9-.5-7.91-.04-12.18,3.01-3.2,1.81-4.12,3.88-7.58,7.62-63.68,72.67-171.49-7.8-195.26-80.94-3.36-10.35-5.06-20.64-4.68-30.29,4.34-108.29,151-293.63,322.34-286.76,175.39,7.04,310.31,214.92,297.77,318.63v.02Z" fill="#fefefe" stroke-width="0"/><path id="path224" d="m1123.7,2411.11c-22.5,58.11-99.91,108.32-149.84,95.08-52.38-9.28-49.54-50.41-74.64-44.15-11.88,2.47-8.16,8.33-28.84,23.33-.09,0-4.25,2.68-9.15,5.52-25.94,13.23-58.33,12.48-76.67,4.01-2.83-.48-12.84-6.04-15.53-7.72-26.3-16.71-23.14-31.32-39.67-32.53-.9-.5-7.91-.04-12.18,3.01-3.2,1.81-4.12,3.88-7.58,7.62-63.68,72.67-171.49-7.8-195.26-80.94,32.59-107.98,164.09-250.57,314.75-244.52,151.76,6.09,271.97,160.81,294.6,271.28h0Z" fill="#feecde" stroke-width="0"/><path id="path226" d="m1126.13,2403.29c.06.07.06.13,0,.19-22.96,78.81-150.13,150.58-206.88,66.28-6.01-8.62-14.78-7.96-15.69-8.18-.07.06-.13.09-.19.09-15.48.39-11.27,8.02-33,23.72-.09,0-4.25,2.68-9.15,5.52-26.6,13.57-58.5,12.38-76.67,4.01-2.83-.48-12.84-6.04-15.53-7.72-26.3-16.71-23.14-31.32-39.67-32.53-.9-.5-7.91-.04-12.18,3.01-3.2,1.81-4.12,3.88-7.58,7.62-25.57,29.08-50.89,26.87-59.71,28.72-53.04,4.69-124.52-61.07-137.67-116.57,0-.09,0-.19.11-.36,2.53-10.3,6.09-21.02,10.49-31.9,35.78,74.08,153.71,135.72,198.41,11.37,18.04,84.91,139.99,134.34,181.61-1.41,44.04,126.55,145.06,98.72,215.73,16.16,3.42,11,5.95,21.69,7.56,31.97h0Z" fill="#efc1a3" stroke-width="0"/><path id="path228" d="m988.92,2522.24c-33.77,0-62.42-15.31-81.9-44.25-.83-1.18-1.71-1.46-3.26-1.59h0c-2.05.06-2.74.28-2.77.29-.13.18-1.46,1.68-2.54,2.9-3.58,4.06-9,10.2-19.44,17.75-.49.35-1.01.69-1.54.97l-.83.51c-1.77,1.11-4.77,2.98-8.12,4.89-.2.11-.39.22-.6.32-31.63,16.16-67.72,13.82-88.49,4.75-7.21-2.3-17.65-8.72-18.15-9.03-14.99-9.5-22.17-18.78-26.91-24.93-4.09-5.3-4.17-5.3-6.08-5.44-.29-.02-.6-.06-.89-.1-1.52.06-2.09.69-5.2,4.11l-1.78,1.95c-17.48,19.31-42.02,31.23-68.96,33.4-.7.06-1.41.07-2.09.02l-.8.05c-9.09.58-33.21,2.1-71.36-23.76-42.4-28.68-84.31-80.49-82.25-131.56,2.36-58.79,42.72-135.87,102.81-196.37,40.65-40.93,125.16-109,234.84-104.53,88.26,3.54,180.2,59.08,245.96,148.59,52.68,71.71,76.4,150.2,62.03,205.13-.08.44-.19.87-.31,1.31h0c-15.82,54.32-74.14,104.02-132.76,113.16-6.35.99-12.55,1.47-18.59,1.47h0Zm-341.2-13.68c.32.06.72.13,1.19.16-.4-.04-.8-.09-1.19-.16Zm257.71-61.61c13.87,1.04,21.72,8.36,25.91,14.36,20.94,31.07,50.5,33.62,71.64,30.31,46.31-7.22,95.85-48.95,108.73-91.38.05-.27.12-.52.19-.79,12.36-45.8-10.06-116.79-57.11-180.83-60.49-82.34-144-133.4-223.38-136.59-98.5-3.99-175.5,58.37-212.74,95.85-54.34,54.7-92.22,125.74-94.26,176.76-1.59,39.53,34.82,82.64,69.32,105.97,29.82,20.22,46.62,19.14,52.97,18.74,1.14-.08,2.26-.13,3.39-.12,18.78-1.76,36.44-10.42,48.6-23.85l1.7-1.86c5.82-6.4,13.16-14.38,29.4-13.7.86.03,1.7.15,2.53.32,13.9,1.74,20.25,9.96,25.4,16.62,4.11,5.31,8.75,11.32,19.23,17.96,2.44,1.5,8.85,4.95,11.1,5.84.92.23,1.83.53,2.69.93,14.35,6.6,41.43,7.55,63.51-3.6,2.79-1.6,5.29-3.16,6.77-4.1.41-.26.84-.52,1.29-.8,7.41-5.44,11.09-9.6,14.07-12.96,6.13-6.96,11.94-12.38,25.12-13.09,1.31-.19,2.63-.2,3.95-.03h0Zm-118.46,33.42c.25.04.5.09.75.15-.29-.07-.54-.11-.75-.15Zm118.74-33.38c.6.09,1.2.22,1.79.38-.37-.11-.97-.28-1.79-.38Z" fill="#28150f" stroke-width="0"/><path id="path230" d="m729.14,2469.36c-7.59,0-14.04-5.83-14.68-13.53l-8.87-106.78c-.68-8.11,5.36-15.24,13.48-15.91,8.11-.66,15.24,5.36,15.91,13.48l8.87,106.78c.68,8.11-5.36,15.24-13.48,15.91-.41.03-.83.05-1.24.05h0Z" fill="#28150f" stroke-width="0"/><path id="path232" d="m905.13,2476.42c-7.59,0-14.04-5.83-14.68-13.53l-8.87-106.78c-.68-8.11,5.36-15.24,13.48-15.91,8.09-.66,15.24,5.36,15.91,13.48l8.87,106.78c.68,8.11-5.36,15.24-13.48,15.91-.41.03-.83.05-1.23.05h0Z" fill="#28150f" stroke-width="0"/></g><g id="text499"><g id="path3174"><path id="path3261" d="m1104.32,2629.11c47.51,0,75.99,41.38,85.43,124.13v27.38c0,148.83-6.45,232.38-19.35,250.63-14.79,16.52-30.36,24.78-46.73,24.78-36.82-7.87-55.22-25.33-55.22-52.39,7.39-119.89,11.09-189.58,11.09-209.09v-2.83h-2.83c-22.66,52.71-45.55,91.25-68.67,115.64-14.79,11.01-31.31,16.52-49.56,16.52-33.67,0-66.71-33.04-99.12-99.12h-2.83v85.43c0,41.69,1.81,81.1,5.43,118.23-8.81,33.04-25.33,49.56-49.56,49.56h-8.26c-36.66,0-54.99-32.1-54.99-96.29-1.89-63.4-2.83-112.96-2.83-148.68.63-90.31,5.35-144.12,14.16-161.42,8.97-17.31,28.16-28.71,57.58-34.22h10.86c36.97,0,80.16,46.88,129.56,140.65h2.6c42.48-99.28,90.23-148.91,143.25-148.91Z" fill="#28150f" stroke-width="0"/><path id="path3263" d="m1104.31,2623.11c-28.38,0-55.26,13.45-79.9,39.07-23.21,24.13-44.77,59.21-65.09,105-23.17-42.97-45.06-76.1-65.88-98.71-22.17-24.07-43.51-37.1-64.53-37.1h-11.41l-.55.1c-30.43,5.7-51.72,17.9-61.81,37.36v.02s-.02.02-.02.02c-5.35,10.51-8.39,28.36-10.78,55.53s-3.72,63.32-4.03,108.57v.04c0,35.82.94,85.42,2.83,148.86v-.18c0,32.67,4.52,57.65,14.54,75.19s26.37,27.1,46.45,27.1h8.26c13.48,0,25.51-4.85,34.8-14.15,9.3-9.3,15.97-22.69,20.55-39.87l.28-1.05-.11-1.08c-3.6-36.91-5.4-76.13-5.4-117.65v-66.47c13.62,25.29,27.42,45.37,41.68,59.62,17.24,17.24,35.48,26.54,54.27,26.54s37.41-5.99,53.14-17.71l.41-.31.36-.37c20.7-21.83,40.76-54.05,60.56-96.68-1.24,31.95-4.68,94.25-10.49,188.47v.18s-.01.18-.01.18c0,14.89,5.35,27.95,15.67,37.75,10.33,9.8,25.2,16.43,44.29,20.51l.62.13h.63c18.38,0,35.68-9.44,51.2-26.78l.23-.26.2-.28c4.33-6.13,6.98-15.2,9.46-28.27,2.49-13.08,4.51-30.05,6.14-51.07,3.25-42.04,4.86-100.24,4.86-174.75v-27.72l-.04-.34c-4.78-41.94-14.34-73.85-29.46-95.82s-36.44-33.63-61.94-33.63h0Zm0,12c22.02,0,38.7,9.03,52.05,28.44,13.32,19.36,22.71,49.43,27.38,90.09v26.98c0,74.33-1.62,132.32-4.82,173.82-1.6,20.75-3.61,37.38-5.96,49.75-2.31,12.17-5.25,20.27-7.36,23.38-13.75,15.23-27.31,22.22-41.33,22.41-17.36-3.79-29.92-9.75-37.9-17.31-8.06-7.65-11.91-16.84-11.93-28.97,7.38-119.67,11.09-188.92,11.09-209.16v-8.83h-12.78l-1.56,3.63c-22.37,52.03-44.94,89.88-67.13,113.44-13.74,10.12-28.7,15.09-45.59,15.09-14.87,0-29.99-7.22-45.79-23.02s-31.92-40.07-47.94-72.74l-1.65-3.36h-12.57v91.43c0,41.41,1.79,80.59,5.35,117.57-4.21,15.37-10.09,26.51-17.16,33.59-7.22,7.22-15.57,10.63-26.32,10.63h-8.26c-16.58,0-27.72-6.5-36.03-21.05s-12.96-37.71-12.96-69.24v-.18c-1.89-63.35-2.83-112.85-2.83-148.46h0v-.04c.31-45.04,1.65-80.94,3.99-107.56,2.34-26.62,6.05-44.31,9.51-51.12,7.81-15.06,24.77-25.61,52.88-30.96h10.22c15.95,0,34.69,10.41,55.71,33.23,21.02,22.81,43.99,57.61,68.55,104.22l1.69,3.2h10.17l1.56-3.64c21.06-49.22,43.37-85.87,66.48-109.89s46.61-35.39,71.25-35.39h0Z" fill="#28150f" stroke-width="0"/></g><g id="path3176"><path id="path3267" d="m1300.19,2700.38c38.07,0,60.1,31.23,66.08,93.69,3.62,33.51,5.43,61.04,5.43,82.6,0,92.2-7.32,147.42-21.95,165.67-14.16,12.74-27.93,19.12-41.3,19.12h-5.66c-34.77-6.14-52.16-23.52-52.16-52.16,7.24-64.66,10.86-110.76,10.86-138.29,0-30.99-5.51-69.54-16.52-115.64,8.02-36.66,26.43-54.99,55.22-54.99h0Zm-8.97-25.49c-18.88,0-35.08-6.84-48.62-20.53-13.37-13.85-20.06-30.44-20.06-49.8s6.69-36.11,20.06-49.8c13.53-13.85,29.74-20.77,48.62-20.77s35.24,6.92,48.62,20.77c13.37,13.69,20.06,30.29,20.06,49.8s-6.69,35.95-20.06,49.8c-13.37,13.69-29.58,20.53-48.62,20.53Z" fill="#28150f" stroke-width="0"/><path id="path3269" d="m1291.22,2528.01c-20.35,0-38.4,7.73-52.91,22.57-14.37,14.71-21.77,33.11-21.77,53.99,0,20.73,7.4,39.12,21.75,53.96l.02.02.02.02c14.51,14.68,32.55,22.31,52.88,22.31s38.54-7.63,52.91-22.34h.01s.01-.02.01-.02c14.34-14.85,21.75-33.23,21.75-53.96s-7.39-39.26-21.75-53.96h0c-14.36-14.87-32.44-22.6-52.92-22.6h0Zm0,12c17.58,0,31.91,6.11,44.3,18.94h.01s.01.02.01.02c12.38,12.67,18.35,27.46,18.35,45.6s-5.97,32.78-18.37,45.62c0,0,0,0,0,0-12.37,12.65-26.71,18.7-44.3,18.7s-31.77-6.05-44.32-18.72c-12.39-12.84-18.36-27.65-18.36-45.61s5.97-32.93,18.35-45.6c12.56-12.85,26.91-18.96,44.32-18.96h0Zm8.97,154.38c-15.67,0-29.32,5.23-39.63,15.49-10.31,10.27-17.28,25.15-21.45,44.21l-.29,1.34.32,1.34c10.94,45.8,16.36,83.96,16.36,114.24,0,27.01-3.59,73.06-10.82,137.63l-.04.33v.34c0,15.53,4.94,28.9,14.8,38.76,9.86,9.86,24.14,16.1,42.32,19.31l.52.09h6.19c15.28,0,30.45-7.28,45.31-20.65l.36-.33.31-.38c8.86-11.05,14.01-30.03,17.73-58.07,3.72-28.04,5.54-65.1,5.54-111.35,0-21.88-1.83-49.57-5.46-83.19-3.05-31.82-10.12-56.19-22.07-73.13-11.95-16.95-29.3-25.96-49.98-25.96Zm0,12c17.4,0,30.1,6.6,40.17,20.88,10.07,14.28,17,36.75,19.93,67.38v.07c3.6,33.37,5.39,60.73,5.39,81.95,0,45.94-1.83,82.6-5.43,109.78-3.55,26.78-9.25,44.36-14.94,51.76-13.3,11.85-25.53,17.25-36.88,17.25h-5.02c-16.37-2.95-28.06-8.42-35.52-15.88-7.49-7.49-11.23-17.09-11.27-30.1,7.21-64.48,10.84-110.49,10.84-138.47,0-31.34-5.52-69.81-16.35-115.5,3.87-16.96,9.98-29.25,17.89-37.13,8.1-8.06,18.04-12,31.17-12h0Z" fill="#28150f" stroke-width="0"/></g><g id="path3178"><path id="path3273" d="m1788.94,2629.11c47.51,0,75.99,41.38,85.43,124.13v27.38c0,148.83-6.45,232.38-19.35,250.63-14.79,16.52-30.36,24.78-46.73,24.78-36.82-7.87-55.22-25.33-55.22-52.39,7.39-119.89,11.09-189.58,11.09-209.09v-2.83h-2.83c-22.66,52.71-45.55,91.25-68.67,115.64-14.79,11.01-31.31,16.52-49.56,16.52-33.67,0-66.71-33.04-99.12-99.12h-2.83v85.43c0,41.69,1.81,81.1,5.43,118.23-8.81,33.04-25.33,49.56-49.56,49.56h-8.26c-36.66,0-54.99-32.1-54.99-96.29-1.89-63.4-2.83-112.96-2.83-148.68.63-90.31,5.35-144.12,14.16-161.42,8.97-17.31,28.16-28.71,57.58-34.22h10.86c36.97,0,80.16,46.88,129.56,140.65h2.6c42.48-99.28,90.23-148.91,143.25-148.91Z" fill="#28150f" stroke-width="0"/><path id="path3275" d="m1788.94,2623.11c-28.38,0-55.26,13.45-79.9,39.07-23.21,24.13-44.77,59.21-65.09,105-23.17-42.97-45.06-76.1-65.88-98.71-22.17-24.07-43.51-37.1-64.53-37.1h-11.41l-.55.1c-30.43,5.7-51.72,17.9-61.81,37.36v.02s-.02.02-.02.02c-5.35,10.51-8.39,28.36-10.78,55.53s-3.72,63.32-4.03,108.57v.04c0,35.82.94,85.42,2.83,148.86v-.18c0,32.67,4.52,57.65,14.54,75.19s26.37,27.1,46.45,27.1h8.26c13.48,0,25.51-4.85,34.8-14.15s15.97-22.69,20.55-39.87l.28-1.05-.11-1.08c-3.6-36.91-5.4-76.13-5.4-117.65v-66.47c13.62,25.29,27.42,45.37,41.68,59.62,17.24,17.24,35.48,26.54,54.27,26.54s37.41-5.99,53.14-17.71l.41-.31.36-.37c20.7-21.83,40.76-54.05,60.56-96.68-1.24,31.95-4.68,94.25-10.49,188.47v.18s-.01.18-.01.18c0,14.89,5.35,27.95,15.67,37.75,10.33,9.8,25.2,16.43,44.29,20.51l.62.13h.63c18.38,0,35.68-9.44,51.2-26.78l.23-.26.2-.28c4.33-6.13,6.98-15.2,9.46-28.27,2.49-13.08,4.51-30.05,6.14-51.07,3.25-42.04,4.86-100.24,4.86-174.75v-27.72l-.04-.34c-4.78-41.94-14.33-73.85-29.46-95.82s-36.44-33.63-61.94-33.63h0Zm0,12c22.02,0,38.7,9.03,52.05,28.44,13.32,19.36,22.71,49.43,27.38,90.09v26.98c0,74.33-1.62,132.32-4.82,173.82-1.6,20.75-3.61,37.38-5.96,49.75-2.31,12.17-5.25,20.27-7.36,23.38-13.75,15.23-27.31,22.22-41.33,22.41-17.36-3.79-29.92-9.75-37.9-17.31-8.06-7.65-11.91-16.83-11.93-28.96,7.38-119.68,11.08-188.93,11.08-209.18v-8.83h-12.78l-1.56,3.63c-22.36,52.03-44.93,89.88-67.12,113.44-13.74,10.12-28.71,15.09-45.6,15.09-14.87,0-29.99-7.22-45.79-23.02s-31.92-40.07-47.94-72.74l-1.65-3.36h-12.57v91.43c0,41.41,1.79,80.58,5.35,117.57-4.21,15.37-10.09,26.51-17.16,33.59-7.22,7.22-15.57,10.63-26.32,10.63h-8.26c-16.58,0-27.72-6.5-36.03-21.05s-12.96-37.71-12.96-69.24v-.18c-1.89-63.35-2.83-112.85-2.83-148.46h0v-.04c.31-45.04,1.65-80.94,3.99-107.56,2.33-26.62,6.05-44.31,9.51-51.12,7.81-15.06,24.77-25.61,52.88-30.96h10.22c15.95,0,34.69,10.41,55.71,33.23,21.02,22.81,43.99,57.61,68.55,104.22l1.69,3.2h10.18l1.56-3.64c21.06-49.22,43.37-85.87,66.48-109.89s46.61-35.39,71.25-35.39h0Z" fill="#28150f" stroke-width="0"/></g><g id="path3180"><path id="path3279" d="m2332.2,2775.19c9.28,25.33,13.92,50.11,13.92,74.34v11.09c0,62.15-30.37,115.32-91.09,159.53-37.76,23.91-78.11,35.87-121.07,35.87h-19.35c-81.81,0-140.5-34.85-176.05-104.55-7.39-19.98-12.04-42.01-13.92-66.08,0-75.05,24.86-133.73,74.57-176.05,49.87-42.48,106.59-63.72,170.15-63.72s117.68,43.19,162.84,129.56h0Zm-257,16.05c-25.02,21.08-37.52,51.53-37.52,91.33v8.26c0,30.52,24.78,48.85,74.34,54.99h24.78c66.08-8.5,99.12-39.65,99.12-93.45,0-45.47-18.09-74.34-54.28-86.61-11.8-4.09-23.28-6.14-34.46-6.14-22.97,0-46.96,10.54-71.98,31.62h0Z" fill="#28150f" stroke-width="0"/><path id="path3281" d="m2169.37,2639.63c-64.9,0-123.21,21.85-174.04,65.15-51.05,43.46-76.68,104.25-76.68,180.62v.23l.02.23c1.93,24.55,6.67,47.13,14.28,67.69l.12.33.16.31c36.4,71.36,97.88,107.82,181.4,107.82h19.35c44.06,0,85.65-12.34,124.28-36.8l.17-.1.16-.12c61.81-45,93.56-100.28,93.56-164.38v-11.09c0-25-4.8-50.49-14.29-76.4l-.13-.37-.18-.35c-45.69-87.4-102.03-132.78-168.16-132.78h0Zm0,12c60.59,0,112.74,40.88,157.31,125.96,8.99,24.63,13.45,48.59,13.45,71.94v11.09c0,60.13-28.92,111.16-88.45,154.55-36.85,23.3-75.93,34.85-117.71,34.85h-19.35c-79.98,0-135.81-33.13-170.53-100.95-7.09-19.26-11.59-40.55-13.44-63.93.05-73.6,24.13-130.1,72.46-171.24h0c48.92-41.66,104.04-62.29,166.26-62.29h0Zm-22.18,101.99c-24.81,0-50.14,11.37-75.85,33.04-26.44,22.28-39.66,54.86-39.66,95.92v8.26c0,16.88,7.35,31.35,21.02,41.46s33.2,16.34,58.59,19.48l.37.05h25.53l.38-.05c33.83-4.35,59.92-14.56,77.69-31.32s26.66-39.95,26.66-68.08c0-23.53-4.69-43.3-14.48-58.94-9.79-15.63-24.69-26.84-43.83-33.34h-.02c-12.35-4.28-24.51-6.46-36.4-6.46h0Zm0,12c10.44,0,21.24,1.91,32.49,5.81h.02s.02.02.02.02c17.03,5.77,29.26,15.13,37.55,28.36,8.29,13.23,12.65,30.63,12.65,52.57,0,25.68-7.63,44.96-22.9,59.35-15.21,14.34-38.59,23.93-70.67,28.1h-23.88c-24.02-3.01-41.58-8.99-52.64-17.17-11.11-8.22-16.15-18.18-16.15-31.81v-8.26c0-38.55,11.8-66.86,35.39-86.74,24.32-20.5,46.98-30.21,68.11-30.21h0Z" fill="#28150f" stroke-width="0"/></g><g id="path3182"><path id="path3285" d="m2596.75,2617.55c58.05,0,96.6,21.08,115.64,63.25,3.62,12.74,5.43,23.76,5.43,33.04-6.45,42.32-27.53,63.48-63.25,63.48-33.04-9.44-49.56-25.09-49.56-46.96h-13.69c-47.83,0-80.87,19.27-99.12,57.82,124.45,15.42,199.1,34.85,223.96,58.29,25.02,23.28,37.52,47.04,37.52,71.27v16.52c0,64.82-57.82,108.87-173.46,132.16-26.75,3.62-57.98,5.43-93.69,5.43h-2.6c-44.05-4.88-66.08-24.15-66.08-57.82,6.29-36.66,23.68-54.99,52.16-54.99h60.65c38.7,0,72.69-8.26,101.95-24.78,0-11.01-42.09-21.63-126.26-31.86-84.01-10.23-126.42-44.6-127.2-103.13v-8.26c0-50.19,31.23-96.99,93.69-140.42,39.18-22.03,80.47-33.04,123.9-33.04h0Z" fill="#28150f" stroke-width="0"/><path id="path3287" d="m2596.75,2611.55c-44.44,0-86.84,11.32-126.84,33.81l-.25.14-.24.16c-63.35,44.04-96.27,92.67-96.27,145.34v8.34c.41,30.7,12.13,56.03,34.61,74.26s55.18,29.55,97.87,34.75c41.96,5.1,73.38,10.31,93.95,15.5,10.28,2.59,17.87,5.23,22.4,7.56.71.36.81.57,1.36.91-26.83,13.72-57.59,20.72-92.67,20.72h-60.65c-15.53,0-28.93,5.27-38.75,15.62s-16.04,25.28-19.32,44.35l-.09.5v.51c0,18.14,6.25,33.45,18.57,44.22s30.07,17.04,52.85,19.56l.33.04h2.93c35.92,0,67.4-1.81,94.5-5.48l.19-.03.19-.04c58.35-11.75,102.51-28.73,132.55-51.61,30.04-22.89,45.73-52.23,45.73-86.43v-16.52c0-26.28-13.65-51.65-39.41-75.64h-.01c-14.01-13.22-39.5-23.78-77.23-33.6-35.88-9.34-83.2-17.66-141.35-25.11,17.84-31.58,46.71-47.04,89.63-47.04h8.3c1.36,10.04,5.91,19.16,13.65,26.5,9.27,8.79,22.54,15.35,39.65,20.23l.81.23h.84c19.04,0,35.11-5.86,46.85-17.64,11.74-11.78,18.98-28.97,22.33-50.94l.07-.45v-.45c0-10.06-1.93-21.56-5.66-34.68l-.12-.43-.18-.41c-19.98-44.25-61.6-66.78-121.11-66.78h0Zm0,12c56.42,0,91.83,19.52,109.98,59.33,3.36,11.96,5.01,22.17,5.06,30.48-3.13,20.1-9.61,34.54-18.88,43.85-9.19,9.23-21.32,13.89-37.57,14.05-15.45-4.52-26.71-10.39-33.82-17.12-7.25-6.87-10.52-14.36-10.52-23.79v-6h-19.69c-49.44,0-85.42,20.87-104.54,61.25l-3.55,7.5,8.24,1.02c62.06,7.69,111.64,16.38,148.55,25.99,36.91,9.61,61.18,20.48,72.03,30.71h.01s.02.03.02.03c24.26,22.58,35.61,44.72,35.61,66.88v16.52c0,30.63-13.22,55.72-41,76.88-27.75,21.14-70.26,37.82-127.45,49.35-26.35,3.55-57.27,5.35-92.7,5.35h-2.16c-21.15-2.37-36.37-8.16-46.04-16.63-9.61-8.41-14.33-19.46-14.43-34.73,3.04-17.27,8.59-29.68,16.07-37.57,7.57-7.98,17.09-11.88,30.04-11.88h60.65c39.56,0,74.65-8.48,104.9-25.55l3.05-1.72v-3.5c0-3.29-1.64-6.19-3.65-8.28s-4.5-3.71-7.49-5.25c-6-3.08-14.19-5.8-24.95-8.52-21.52-5.43-53.22-10.64-95.44-15.77h0c-41.33-5.03-71.84-16.01-91.76-32.16-19.92-16.15-29.8-37.27-30.17-65.1v-8.18c0-47.64,29.49-92.57,90.9-135.33,38.27-21.46,78.38-32.13,120.69-32.13h0Z" fill="#28150f" stroke-width="0"/></g></g></g></g></g></svg>