<?xml version="1.0" encoding="UTF-8" standalone="no"?>
<!-- Created with Inkscape (http://www.inkscape.org/) -->

<svg
   width="3500"
   height="3500"
   viewBox="0 0 926.0419 926.0419"
   version="1.1"
   id="svg5"
   xml:space="preserve"
   inkscape:version="1.2.2 (732a01da63, 2022-12-09, custom)"
   sodipodi:docname="circle_logo.svg"
   inkscape:export-filename="../a60271ff/circle_logo.svg"
   inkscape:export-xdpi="96"
   inkscape:export-ydpi="96"
   xmlns:inkscape="http://www.inkscape.org/namespaces/inkscape"
   xmlns:sodipodi="http://sodipodi.sourceforge.net/DTD/sodipodi-0.dtd"
   xmlns="http://www.w3.org/2000/svg"
   xmlns:svg="http://www.w3.org/2000/svg"><sodipodi:namedview
     id="namedview7"
     pagecolor="#505050"
     bordercolor="#eeeeee"
     borderopacity="1"
     inkscape:showpageshadow="0"
     inkscape:pageopacity="0"
     inkscape:pagecheckerboard="0"
     inkscape:deskcolor="#505050"
     inkscape:document-units="px"
     showgrid="false"
     inkscape:zoom="0.16173406"
     inkscape:cx="61.829895"
     inkscape:cy="1548.8389"
     inkscape:window-width="2560"
     inkscape:window-height="1376"
     inkscape:window-x="0"
     inkscape:window-y="27"
     inkscape:window-maximized="1"
     inkscape:current-layer="g206" /><defs
     id="defs2"><style
       id="style148">
      .cls-1 {
        fill: #fefefe;
      }

      .cls-1, .cls-2, .cls-3, .cls-4, .cls-5, .cls-6, .cls-7, .cls-8, .cls-9, .cls-10, .cls-11 {
        stroke-width: 0px;
      }

      .cls-2 {
        fill: #3a0f0a;
      }

      .cls-4 {
        fill: #d5a288;
      }

      .cls-5 {
        fill: #c40520;
      }

      .cls-6 {
        fill: #fff;
      }

      .cls-7 {
        fill: #be7146;
      }

      .cls-8 {
        fill: #feecde;
      }

      .cls-9 {
        fill: #c98965;
      }

      .cls-10 {
        fill: #fc061e;
      }

      .cls-11 {
        fill: #efc1a3;
      }
    </style></defs><g
     inkscape:label="Layer 1"
     inkscape:groupmode="layer"
     id="layer1"
     transform="translate(237.16197,347.34404)"><g
       id="g285"
       transform="matrix(0.26458333,0,0,0.26458333,-435.59951,-545.7816)"><path
         style="fill:#ffd1d4;stroke:none;stroke-width:25.4768"
         id="path3289"
         sodipodi:type="arc"
         sodipodi:cx="2500.0007"
         sodipodi:cy="2500.0007"
         sodipodi:rx="1750.0005"
         sodipodi:ry="1750.0005"
         sodipodi:start="0"
         sodipodi:end="6.2716102"
         sodipodi:open="true"
         sodipodi:arc-type="arc"
         d="M 4250.0012,2500.0007 A 1750.0005,1750.0005 0 0 1 2505.0648,4249.9939 1750.0005,1750.0005 0 0 1 750.02955,2510.1289 1750.0005,1750.0005 0 0 1 2484.8086,750.06619 1750.0005,1750.0005 0 0 1 4249.884,2479.7447" /><g
         id="g1347"
         transform="matrix(0.98292528,0,0,0.98292528,42.687158,-244.73818)"><g
           id="g206"><g
             id="g202"><path
               class="cls-9"
               d="m 1675.7,2812.76 c -45.21,165.01 -233.14,-73.19 -233.61,-235.11 -193.18,161.92 -67.86,-277.7 0,-334.42 -171.75,57.09 -19.09,-157.99 102.95,-271.33 45.86,-42.59 87.42,-70.76 105.86,-64.77 419.79,-387.87 708.89,1165.07 24.8,905.63 z"
               id="path154" /><path
               class="cls-7"
               d="m 1691.89,2818.47 c -20.31,-39.78 -35.1,-85.83 -39.97,-136.37 -169.78,50.82 -169.78,-87.51 -89.85,-214.24 -201.7,42.12 -134.4,-98.27 29.2,-345.27 -117.84,-10.48 -109.97,-78.43 -46.24,-150.69 45.86,-42.59 87.42,-70.76 105.86,-64.77 414.81,-383.27 706.08,1135.68 40.99,911.34 z"
               id="path156" /><path
               class="cls-3"
               d="m 1623.39,2883.5 c -3.02,0 -5.85,-0.22 -8.42,-0.56 -75.88,-10.08 -171.62,-156.96 -186.07,-276.4 -28.59,19.58 -51.68,25.83 -70.2,19.08 -17,-6.19 -27.86,-22.11 -32.3,-47.32 -13.15,-74.8 33.77,-234.49 78.74,-311.08 -17.97,1.7 -36.69,-0.92 -47.41,-15.5 -18.74,-25.5 -1.49,-75.49 51.24,-148.57 36.24,-50.23 85.15,-105.09 130.82,-146.75 62.45,-56.97 92.25,-65.44 106.41,-65.25 83.87,-74.32 173.21,-81 252.22,-18.62 86.45,68.27 156.37,214.6 187.03,391.45 31.09,179.38 13.52,350.79 -47.02,458.53 -49.9,88.81 -151.49,178.56 -353.28,109.58 -16.27,42.65 -42.76,51.42 -61.77,51.42 z m -181.35,-320.9 c 2.14,0 4.3,0.46 6.31,1.4 5.28,2.45 8.66,7.73 8.68,13.55 0.39,115.43 99.76,267.4 161.89,275.65 7.21,0.96 29.08,3.85 42.28,-44.39 1.11,-4.06 3.88,-7.46 7.62,-9.38 3.74,-1.92 8.12,-2.18 12.07,-0.72 151.74,56.33 266.33,24.88 331.39,-90.91 57.27,-101.92 73.57,-265.92 43.61,-438.71 -28.99,-167.23 -96.45,-310.17 -176.06,-373.03 -69.73,-55.06 -143.33,-47.64 -218.74,22.05 -3.98,3.68 -9.64,4.91 -14.8,3.25 -5.14,-1.39 -33.72,7.57 -95,65.26 -47.47,44.69 -97.43,102.86 -130.37,151.79 -41.47,61.59 -43.62,89.46 -38.96,95.59 3.01,3.97 18.05,7.36 55.33,-5.05 6.83,-2.26 14.32,0.63 17.83,6.92 3.51,6.29 2.06,14.18 -3.46,18.81 -39.37,33 -110.62,233.65 -95.71,318.4 1.68,9.55 5.3,21.52 13.02,24.33 5.46,1.99 22.59,2.93 63.42,-31.31 2.75,-2.31 6.18,-3.51 9.64,-3.51 z"
               id="path158"
               style="fill:#28150f" /><path
               class="cls-9"
               d="m 3571.09,2572.69 c 27.7,86.2 -62.9,333.29 -136.46,214.99 -27.24,76.6 -268.03,189.74 -229.12,27.05 -253.36,63.55 -368.39,-125.79 -381.87,-353.79 -19.75,-333.01 177.27,-748.48 476.4,-578.32 67.42,-21.65 452.08,379.71 252.15,360.53 67.76,56.91 196.27,458.43 18.91,329.55 z"
               id="path160" /><path
               class="cls-7"
               d="m 3435.57,2453.45 c 87.04,178.58 0,357.16 -107.07,284.34 -10.2,57.56 -28.64,112.78 -51.01,157.52 -57.35,11.3 -87.88,-14.11 -71.98,-80.59 -253.36,63.55 -368.39,-125.79 -381.87,-353.79 17.41,-310.92 204.79,-639.16 476.4,-484.73 23.02,-7.39 82.83,34.35 143.86,91.91 2.81,39.22 -22.37,63.08 -84.8,49.79 199.92,132.81 285,387.39 76.47,335.54 z"
               id="path162" /><path
               class="cls-3"
               d="m 3253.24,2912.83 c -8.86,0 -17.17,-1.04 -24.72,-3.28 -18.8,-5.58 -46.87,-22.71 -41.63,-75.28 -176.46,35.55 -268.94,-53.25 -315.81,-136.05 -57.68,-101.91 -77.58,-251.38 -54.6,-410.1 22.8,-157.51 83.2,-295.07 165.71,-377.4 91.83,-91.65 205.52,-107.08 320.61,-43.73 56.36,-3.96 179.65,119.43 233.13,183.02 50.36,59.87 105.62,140.3 82.91,183.52 -6.67,12.68 -18.58,20.62 -35.57,23.75 53.4,79.58 122.52,283.08 78.33,339.59 -11.18,14.29 -32.14,25 -70.69,5.71 3.34,78.43 -38.66,201.7 -92.56,226.64 -13.41,6.2 -37.4,11.08 -61.76,-14.34 -34.74,47.84 -121.93,97.95 -183.35,97.96 z m -47.77,-113.14 c 3.9,0 7.7,1.52 10.55,4.33 3.73,3.69 5.26,9.05 4.04,14.15 -12.83,53.78 9.61,60.43 16.99,62.62 4.99,1.48 10.59,2.17 16.65,2.17 56.29,0 152.29,-59.6 166.82,-100.33 1.94,-5.42 6.81,-9.26 12.53,-9.88 5.72,-0.64 11.29,2.1 14.34,7 19.29,31.05 33.14,24.65 38.37,22.23 45.46,-21.03 90.64,-163.83 71.1,-224.7 -1.98,-6.18 0.23,-12.93 5.49,-16.74 5.25,-3.8 12.37,-3.79 17.61,0.02 13.8,10.03 47.06,31.83 58.01,17.81 12.42,-15.88 12.3,-72.25 -15.95,-162.38 -22.96,-73.23 -57.12,-142.61 -79.46,-161.38 -5.03,-4.23 -6.72,-11.23 -4.18,-17.29 2.54,-6.05 8.76,-9.73 15.27,-9.13 12.13,1.17 33.28,1.59 38.65,-8.63 9.01,-17.15 -12.02,-70.26 -79.31,-150.26 -38.77,-46.1 -85.19,-92 -127.37,-125.95 -52.79,-42.49 -76.35,-47.96 -80.95,-46.45 -4.01,1.29 -8.35,0.84 -12.02,-1.24 -133.14,-75.73 -230.79,-22.07 -289.26,36.27 -165.08,164.73 -219.66,551.01 -106.19,751.49 62.61,110.62 167.94,150.97 304.63,116.69 1.21,-0.31 2.43,-0.45 3.65,-0.45 z"
               id="path164"
               style="fill:#28150f" /><path
               class="cls-8"
               d="M 3463.19,3419.08 H 1547.9 c -27.95,-42.05 -11.47,-101.11 15.61,-143.66 v -0.06 c 29.83,-47.93 78.4,-92.17 132.29,-111.11 -26.41,0 -63.24,-7.65 -56.33,-32.99 0,-8.39 12.82,-23.31 18.81,-29.29 h 0.06 c 25.44,-25.44 75.82,-51.81 128.05,-56.22 -31.18,-5.2 -55.26,-16.31 -39.83,-44.08 2.98,-2.98 4.11,-14.28 47.61,-48.55 51.53,-38.64 121.64,-82.86 121.7,-82.97 1.66,-1.07 5.98,-3.99 8.99,-5.96 h 0.06 c 3.12,-2.26 10.76,-7.14 21.9,-15.56 17.31,-33.53 51.69,-62.36 84.57,-79.83 h 0.06 c 95.85,-54.07 238.05,-75.46 349,-82.09 h 0.05 c 5.52,-0.28 10.98,-0.61 16.38,-0.88 179.52,-8.71 351.22,14.37 466.23,48.49 h 0.06 c 26,7.72 49.06,15.56 74.48,26.15 0.06,0 0.06,0.06 0.11,0.06 h 0.06 c 0.98,0.29 18.87,7.94 34.76,15.89 l 0.05,0.06 c 21.86,11.01 44.89,24.95 63.39,40.44 q 0.06,0 0.11,0.06 l 0.06,-0.06 v 0.11 c 17.51,14.48 33.47,31.36 44.08,51.47 v 0.06 c 2.1,1.32 4.19,2.7 6.35,4.14 1.22,0.41 19.96,14.01 23.5,16.88 3.13,2.18 7.29,5.73 12.58,9.93 4.59,3.55 12.78,10.59 17.49,14.73 3.14,2.75 4.59,4.09 7.56,6.79 100.06,90.75 99.32,132.51 99.69,133.07 1.94,25.8 -31.33,19.57 -32.05,19.92 -14.04,-1.58 -25.22,-5.22 -29.96,-6.4 193.1,64.78 244.53,156.7 131.41,132.46 56.03,34.91 103.67,108.66 129.26,169.81 v 0.06 h 0.06 c 8.84,21.01 15.95,44.2 17.05,49.16 z"
               id="path166" /><path
               class="cls-3"
               d="M 3463.19,3434.08 H 1547.84 c -5.02,0 -9.71,-2.51 -12.49,-6.7 -14.9,-22.42 -20.11,-50.94 -15.07,-82.5 0.15,-1.11 0.41,-2.56 0.67,-4 0.18,-0.98 0.37,-2.03 0.61,-3.06 0.19,-1.01 0.41,-2.01 0.64,-2.99 l 0.22,-1 c 0.13,-0.6 0.29,-1.27 0.45,-1.94 l 0.25,-1.06 c 0.07,-0.32 0.15,-0.64 0.23,-0.95 l 0.76,-2.72 c 0.27,-1.1 0.59,-2.21 0.91,-3.32 0.7,-2.34 1.45,-4.72 2.21,-7.05 l 1.48,-4.18 c 0.32,-0.97 0.76,-2.13 1.2,-3.3 l 0.33,-0.9 c 2.07,-5.38 4.42,-10.81 7.26,-16.75 l 0.81,-1.62 c 1.12,-2.24 2.25,-4.51 3.46,-6.73 1.31,-2.52 2.81,-5.33 4.43,-8.09 l 0.81,-1.36 c 0.43,-0.72 0.87,-1.46 1.28,-2.19 16.71,-27.96 39,-54.07 64.64,-75.82 11.26,-9.54 22.95,-18.02 34.89,-25.32 -4.54,-2.12 -8.39,-4.58 -11.64,-7.46 -0.22,-0.2 -0.44,-0.41 -0.65,-0.62 -0.43,-0.36 -0.88,-0.8 -1.33,-1.27 -8.02,-8.02 -11.54,-18.65 -9.95,-30.02 0.1,-0.85 0.24,-1.7 0.43,-2.55 0.11,-0.67 0.26,-1.34 0.45,-2 0.17,-0.73 0.37,-1.44 0.58,-2.14 0.26,-0.92 0.66,-2.14 1.15,-3.44 0.62,-1.58 1.24,-3 1.96,-4.42 1.2,-2.61 2.83,-5.5 4.79,-8.43 3.13,-4.77 7.09,-9.63 11.72,-14.39 l 0.76,-0.77 c 0.61,-0.62 1.21,-1.23 1.83,-1.82 3.11,-3.09 6.44,-6.09 9.91,-8.91 l 0.8,-0.65 c 0.71,-0.58 1.43,-1.17 2.18,-1.74 1.67,-1.32 3.66,-2.84 5.71,-4.36 1.86,-1.33 3.51,-2.51 5.15,-3.62 0.04,-0.03 0.08,-0.05 0.12,-0.08 0.21,-0.16 0.5,-0.37 0.64,-0.47 2.87,-1.95 5.9,-3.85 8.99,-5.74 0.76,-0.5 1.56,-0.97 2.38,-1.42 1.62,-0.98 3.3,-1.96 4.97,-2.88 1.97,-1.1 4,-2.23 6.08,-3.3 1.06,-0.58 2.45,-1.31 3.87,-1.99 1.08,-0.57 2.11,-1.1 3.19,-1.59 3.5,-1.74 7.1,-3.39 10.73,-4.91 0.93,-0.42 2.23,-0.95 3.53,-1.47 1.45,-0.61 2.98,-1.26 4.5,-1.84 1.75,-0.68 3.55,-1.37 5.39,-2.01 2.77,-1.07 5.6,-2.04 8.48,-2.94 0.49,-0.16 0.99,-0.33 1.51,-0.49 -8.58,-8.91 -10.12,-19.08 -9.01,-27.87 0.11,-1.01 0.28,-2.02 0.46,-2.94 0.22,-1.09 0.4,-1.91 0.64,-2.81 0.56,-2.09 1.35,-4.36 2.4,-6.86 0.07,-0.16 0.14,-0.31 0.2,-0.47 0.82,-1.77 1.71,-3.61 2.73,-5.45 0.15,-0.27 0.3,-0.52 0.46,-0.78 20.99,-36.34 90.4,-81.57 146.18,-117.91 l 1.26,-0.82 c 5.05,-3.28 9.96,-6.47 14.73,-9.62 0.21,-0.14 0.42,-0.27 0.64,-0.4 0.24,-0.14 0.48,-0.3 0.7,-0.46 0.2,-0.15 0.41,-0.29 0.62,-0.43 l 2.22,-1.45 c 2.27,-1.49 4.51,-2.95 6.69,-4.42 0.26,-0.19 0.52,-0.37 0.8,-0.55 1.54,-0.99 2.82,-1.81 4.06,-2.68 l 3.82,-2.54 c 0.32,-0.25 0.66,-0.49 1.01,-0.72 l 4.55,-3.03 c 5.08,-3.49 9.8,-6.85 13.97,-9.94 16.05,-29.06 45.9,-56.67 88.8,-82.11 6.43,-3.82 13.21,-7.59 20.72,-11.53 83.63,-44.06 199.8,-76.21 327.09,-90.5 6.71,-0.78 13.53,-1.45 20.41,-2.12 116.81,-11.23 341.89,-15.89 537.04,79.12 v 0 c 0,0 0.1,0.05 0.15,0.07 41.91,20.31 83.83,46.87 115.25,72.99 0.75,0.51 1.45,1.08 2.09,1.71 19.99,16.68 34.73,33.65 44.94,51.76 51.06,33.14 110.65,92.05 139.62,130.94 29.18,38.57 38.12,65.04 28.08,83.21 -1.23,2.22 -2.67,4.22 -4.33,6.02 89.54,39.01 144.09,85.17 135.08,118.06 -2.48,9.04 -9.48,18.21 -26.8,21.49 13.92,13.36 27.53,29.1 40.72,47.11 3.14,4.29 6.18,8.64 9.16,13.05 l 3.16,4.67 c 0.29,0.42 0.56,0.86 0.81,1.31 l 0.22,0.3 c 0.1,0.14 0.2,0.29 0.29,0.43 9.04,13.88 17.46,28.28 25.01,42.82 5.69,10.77 11.84,23.82 16.91,35.85 0.13,0.27 0.26,0.55 0.38,0.83 6.91,16.43 13.2,34.55 17.69,51.03 1.23,4.51 0.29,9.34 -2.55,13.05 -2.84,3.72 -7.25,5.9 -11.92,5.9 z m -1906.75,-30 h 1886.52 c -3.07,-9.21 -6.54,-18.52 -10.22,-27.33 -0.29,-0.55 -0.54,-1.13 -0.75,-1.72 -4.75,-11.29 -10.52,-23.53 -15.88,-33.68 -7.11,-13.68 -14.99,-27.16 -23.45,-40.16 -0.48,-0.69 -0.95,-1.39 -1.39,-2.13 l -2.88,-4.25 c -2.85,-4.22 -5.66,-8.25 -8.58,-12.23 -22.88,-31.24 -46.74,-54.72 -70.92,-69.78 -6.18,-3.85 -8.7,-11.6 -5.97,-18.35 2.73,-6.76 9.9,-10.57 17.05,-9.05 27.18,5.83 37.81,3.24 40.95,2 -3.27,-15.08 -57.37,-64.34 -180.27,-105.57 -7.64,-2.56 -11.88,-10.7 -9.63,-18.43 2.27,-7.73 10.24,-12.3 18.03,-10.35 1,0.25 2.27,0.6 3.75,1.01 5.47,1.51 13.68,3.78 23.55,4.96 0.68,0.02 1.27,0.07 1.74,0.11 12.34,1.06 15.02,-1.51 15.05,-1.54 0,-0.01 4.08,-11.03 -25.87,-50.61 -28.05,-37.64 -86.18,-94.9 -135.01,-125.74 -2.5,-1.58 -4.43,-3.83 -5.63,-6.44 -8.45,-15.76 -21.4,-30.76 -39.55,-45.84 -0.23,-0.17 -0.46,-0.35 -0.69,-0.54 -29.74,-24.9 -69.89,-50.37 -110.17,-69.89 -0.07,-0.03 -0.14,-0.07 -0.2,-0.1 -139.74,-68.01 -324.73,-95.07 -520.95,-76.2 -6.67,0.65 -13.32,1.3 -19.9,2.06 -121.91,13.69 -237.27,45.49 -316.53,87.25 -7.06,3.7 -13.38,7.21 -19.36,10.77 -39.54,23.45 -66.16,48.08 -79.13,73.21 -1.03,1.99 -2.5,3.73 -4.28,5.08 -5.14,3.88 -11.15,8.2 -17.88,12.82 l -3.86,2.58 c -0.34,0.27 -0.69,0.52 -1.06,0.76 l -4.31,2.85 c -1.12,0.8 -2.56,1.74 -4.04,2.69 -0.38,0.28 -0.78,0.55 -1.18,0.8 -2.24,1.5 -4.53,3 -6.86,4.52 l -1.91,1.25 c -0.78,0.55 -1.61,1.1 -2.44,1.61 -4.74,3.12 -9.61,6.29 -14.62,9.55 l -1.24,0.81 c -50.36,32.81 -119.35,77.77 -136.62,107.87 0,0.01 -0.02,0.03 -0.02,0.04 -0.11,0.19 -0.24,0.43 -0.42,0.72 -0.48,0.9 -0.91,1.79 -1.31,2.66 -0.47,1.14 -0.81,2.08 -1.02,2.88 l -0.14,0.65 c -0.02,0.21 -0.11,0.69 -0.13,0.9 -1.03,7.79 22.03,12.6 26.66,13.48 1.63,0.3 3.49,0.61 5.4,0.93 7.46,1.25 12.82,7.85 12.51,15.41 -0.31,7.56 -6.19,13.7 -13.73,14.33 -4.2,0.35 -8.47,0.87 -12.67,1.53 -1.76,0.27 -3.19,0.49 -4.62,0.79 -5.01,0.91 -9.82,1.98 -14.72,3.26 l -4.6,1.27 c -0.2,0.05 -0.39,0.1 -0.59,0.15 -0.25,0.06 -0.5,0.14 -0.74,0.22 -2.26,0.69 -4.12,1.26 -5.98,1.88 -2.56,0.81 -4.83,1.57 -7.04,2.44 -0.2,0.08 -0.4,0.15 -0.6,0.22 -1.59,0.54 -3.11,1.14 -4.65,1.74 -1.26,0.48 -2.49,1 -3.71,1.52 -1.34,0.54 -2.25,0.9 -3.15,1.31 -3.48,1.47 -6.57,2.89 -9.56,4.38 -0.2,0.1 -0.41,0.2 -0.62,0.3 -0.65,0.29 -1.25,0.62 -1.86,0.94 -0.19,0.1 -0.44,0.23 -0.64,0.32 -1.02,0.49 -2.04,1.02 -3.01,1.56 -2.1,1.09 -3.83,2.05 -5.56,3.02 -1.47,0.81 -2.9,1.65 -4.27,2.48 -0.21,0.12 -0.41,0.24 -0.62,0.36 l -0.57,0.31 c -0.25,0.18 -0.28,0.2 -0.54,0.36 -2.67,1.63 -5.29,3.26 -7.77,4.93 -0.39,0.29 -0.79,0.57 -1.2,0.84 -1.4,0.95 -2.8,1.96 -4.2,2.96 -1.6,1.19 -3.36,2.54 -5.07,3.88 -0.66,0.5 -1.04,0.82 -1.41,1.13 l -1.03,0.84 c -2.66,2.16 -5.29,4.53 -7.72,6.96 -0.13,0.13 -0.25,0.25 -0.38,0.37 -0.35,0.32 -0.67,0.66 -1,1 l -0.85,0.87 c -3.17,3.26 -5.93,6.64 -8.08,9.9 -1.15,1.72 -2.04,3.31 -2.79,4.92 -0.48,0.97 -0.73,1.54 -0.95,2.1 -0.11,0.31 -0.26,0.74 -0.38,1.15 l -0.19,0.63 c -0.04,0.23 -0.08,0.43 -0.13,0.63 -0.05,0.25 -0.1,0.51 -0.17,0.76 -0.02,0.11 -0.03,0.21 -0.04,0.32 -0.36,2.43 0.25,3.56 1.5,4.79 0.1,0.1 0.19,0.2 0.29,0.29 0.18,0.16 0.34,0.3 0.49,0.45 1.09,0.92 3.17,2.28 6.99,3.73 0.39,0.15 0.72,0.28 1.05,0.37 1.23,0.38 2.01,0.62 2.85,0.87 0.64,0.19 1.3,0.38 1.97,0.53 2.99,0.74 6.08,1.31 9.82,1.81 l 2.33,0.27 c 1.37,0.15 3.1,0.35 4.92,0.44 0.29,0.01 0.59,0.04 0.88,0.07 0.7,0.08 1.41,0.11 2.15,0.15 l 3.51,0.16 c 0.99,0.04 2.02,0.09 3.06,0.09 7.31,0 13.55,5.27 14.79,12.48 1.24,7.21 -2.91,14.25 -9.81,16.67 l -1.29,0.45 c -1.52,0.53 -3.06,1.07 -4.56,1.64 l -0.66,0.27 c -0.92,0.37 -1.87,0.73 -2.77,1.14 -0.19,0.08 -0.39,0.16 -0.58,0.24 -1.39,0.55 -2.79,1.15 -4.18,1.75 -1.05,0.46 -2.1,0.93 -3.18,1.45 -3.76,1.76 -7.28,3.54 -10.6,5.32 -13.83,7.53 -27.51,16.99 -40.61,28.08 -23.15,19.64 -43.25,43.16 -58.11,68.02 -0.35,0.62 -0.9,1.55 -1.45,2.46 l -0.7,1.19 c -1.36,2.31 -2.62,4.69 -3.83,7.01 -1.16,2.14 -2.13,4.08 -3.08,6 l -0.72,1.45 c -2.37,4.96 -4.42,9.67 -6.14,14.16 l -0.33,0.88 c -0.3,0.8 -0.6,1.58 -0.87,2.4 l -1.45,4.05 c -0.59,1.82 -1.26,3.96 -1.89,6.05 -0.19,0.63 -0.39,1.29 -0.54,1.94 -0.05,0.2 -0.1,0.4 -0.16,0.6 l -0.71,2.56 c -0.11,0.5 -0.23,1 -0.35,1.49 l -0.59,2.56 c -0.13,0.57 -0.27,1.15 -0.37,1.74 -0.07,0.39 -0.15,0.79 -0.24,1.17 -0.14,0.56 -0.23,1.15 -0.34,1.74 -0.2,1.1 -0.39,2.08 -0.52,3.06 -2.43,15.21 -2.98,36.09 6.47,54.8 z m 97.19,-268.15 v 0 c 0,0 0,0 0,0 z m 0.45,-1.45 c 0,0 0,0.02 0,0.02 0,0 0,-0.02 0,-0.02 z m 0.4,-3.21 v 0.05 z m 17.78,-59.75 c 0,0 -0.02,0.01 -0.03,0.02 0.01,0 0.02,-0.01 0.03,-0.02 z m 0.04,-0.02 c 0,0 -0.03,0.02 -0.04,0.02 0.01,0 0.03,-0.01 0.04,-0.02 z"
               id="path168"
               style="fill:#28150f" /><path
               class="cls-1"
               d="m 3313.85,2331.73 c 87.11,178.65 0,357.22 -107.04,284.36 -34.02,192.45 -160.73,359.85 -217.37,191.52 5.95,119.92 -239.06,259.77 -239.06,116.87 -41.7,90.93 -145.31,124.81 -253.31,51.46 -74.57,64.55 -188.12,74.58 -236.07,-45.48 -36.92,108.28 -219.31,45.48 -240.7,-113.07 21.4,158.55 -223.87,18.69 -246.73,-219.56 -169.72,50.82 -169.72,-87.45 -89.84,-214.16 -201.71,42.09 -134.35,-98.35 29.25,-345.33 -241,-21.52 43.74,-283.47 257.6,-330.17 -149.23,-93.16 19.31,-222.39 232.82,-131.81 -34.39,-181.87 164.16,-159.01 293.67,29.13 111.58,-193.6 320.87,-241.5 268.92,-36.68 295.3,-45.24 369.66,28.27 235.57,132.65 259.14,6.79 433.08,336.87 235.86,294.78 199.95,132.79 284.98,387.42 76.42,335.48 z"
               id="path170" /><path
               class="cls-11"
               d="m 2261,2930.46 c 47.95,120.05 161.51,110.03 236.07,45.48 107.99,73.35 211.6,39.47 253.31,-51.46 0,142.91 245.01,3.05 239.06,-116.87 56.65,168.33 183.35,0.93 217.37,-191.52 65.59,44.65 123.61,-5.18 138.74,-91.51 -5.08,-31.96 -15.29,-65.61 -31.7,-99.26 11.5,2.86 -1647.1,55.48 -1630.12,51.94 -19.99,31.71 -34.98,64.15 -43.55,94.17 16.38,34.27 58.2,48.91 133.4,26.4 22.86,238.25 268.12,378.11 246.73,219.56 21.4,158.55 203.79,221.35 240.7,113.07 z"
               id="path172" /><path
               class="cls-8"
               d="m 3389.05,2242.05 c -34.58,-53.83 -87.1,-109.35 -151.62,-152.2 48.54,10.36 74.55,-1.85 82.39,-26.21 -25.45,-25.45 -56.12,-49.94 -82.39,-67.38 21.22,4.53 48.75,6.8 66.83,-5.41 0.89,-0.6 1.64,-1.31 2.46,-1.97 -11.89,-24.32 -30.2,-50.38 -53.68,-75.26 -5.15,-3.7 -10.28,-7.42 -15.61,-10.96 2.05,0.44 3.94,0.71 5.91,1.07 -58.16,-57.36 -143.86,-106.1 -241.78,-108.66 41.38,-32.21 62.83,-61.46 64.15,-85.21 -4.96,-1.16 -9.96,-2.2 -15.01,-3.14 -0.56,-0.1 -1.13,-0.2 -1.7,-0.3 -4.3,-0.78 -8.64,-1.45 -13.01,-2.06 -1.13,-0.16 -2.26,-0.31 -3.39,-0.46 -3.94,-0.5 -7.9,-0.91 -11.89,-1.27 -1.27,-0.11 -2.52,-0.25 -3.79,-0.35 -5.09,-0.39 -10.21,-0.68 -15.37,-0.82 4.45,-3.47 8.56,-6.88 12.56,-10.28 1.6,-1.36 3.14,-2.72 4.66,-4.07 2.14,-1.89 4.16,-3.76 6.15,-5.62 4.65,-4.38 9.02,-8.71 12.9,-12.94 -42.2,-22.37 -132.33,-27.52 -271.84,-6.15 10.5,-41.39 10.19,-72.3 2.32,-93.93 -0.79,0.12 -1.53,0.21 -2.32,0.33 0.36,-1.43 0.58,-2.72 0.92,-4.12 -34.11,-79.86 -182.13,-17.79 -269.84,134.39 -129.51,-188.14 -328.05,-211 -293.67,-29.13 -119.34,-50.63 -224.56,-32.56 -268.17,9.47 1.06,1.17 2.29,2.34 3.44,3.51 1.52,1.56 3.03,3.11 4.7,4.66 1.43,1.33 2.99,2.66 4.53,3.98 2,1.71 4.08,3.41 6.28,5.1 1.37,1.07 2.74,2.13 4.19,3.19 3.84,2.79 7.84,5.57 12.22,8.3 -4.37,0.95 -8.77,2.01 -13.19,3.15 -1.09,0.28 -2.19,0.59 -3.28,0.88 -3.46,0.92 -6.92,1.86 -10.41,2.88 -1.03,0.3 -2.07,0.62 -3.11,0.93 -3.7,1.11 -7.4,2.26 -11.12,3.48 -0.75,0.25 -1.5,0.49 -2.25,0.74 -4.17,1.39 -8.35,2.84 -12.55,4.35 -0.23,0.08 -0.45,0.16 -0.68,0.24 -0.04,25.01 17.01,52.23 56.59,76.94 -91.29,19.94 -195.46,79.09 -266.17,142.02 2.81,0.34 5.6,0.69 8.56,0.95 -19.13,28.88 -36.87,56.23 -53.1,82.07 0.55,0.13 18.24,8.41 53.1,11.52 -16.23,24.51 -38.34,58.42 -53.1,82.08 13.67,5.59 31.19,9.56 53.1,11.51 -41.15,62.12 -76.15,117.45 -102.36,164.87 18.72,1.68 42.79,-0.4 73.11,-6.73 -21.35,33.87 -36.92,68.53 -45.14,100.22 0.58,-0.04 1.13,-0.06 1.72,-0.11 2.44,-0.2 4.93,-0.43 7.49,-0.71 4.23,-0.47 8.57,-1.01 13.13,-1.71 1.69,-0.25 3.47,-0.56 5.21,-0.85 5.66,-0.95 12.49,5.01 10.06,9.15 -0.62,1.05 -1.18,2.11 -1.79,3.16 -1.8,3.13 -3.58,6.26 -5.28,9.39 -0.57,1.06 -1.1,2.11 -1.66,3.17 -11.4,21.5 -20.6,43.01 -27.2,66.21 0.91,1.9 1.92,3.73 3,5.5 12.09,-1.12 25.43,-3.1 40.47,-6.24 -5.98,9.49 -11.45,19.03 -16.5,28.56 22.86,11.91 57.53,13.02 106.34,-1.6 22.86,238.25 268.12,378.11 246.73,219.56 21.4,158.55 203.79,221.35 240.7,113.07 47.95,120.05 161.51,110.03 236.07,45.48 107.99,73.35 211.6,39.47 253.31,-51.46 0,142.91 245.01,3.05 239.06,-116.87 56.65,168.33 183.35,0.93 217.37,-191.52 53.75,36.59 102.4,9.71 126.54,-48.69 -5.15,-16.04 -11.59,-32.26 -19.5,-48.48 11.5,2.86 21.95,4.64 31.69,5.72 0,-0.02 0,-0.03 0,-0.05 -4.04,-25.46 -11.12,-50.41 -20.53,-74.04 -3.35,-8.39 10.8,-20.58 20.54,-19.5 -5.07,-31.98 -15.29,-65.64 -31.71,-99.31 31.63,7.88 56.45,8.65 75.2,3.91 z"
               id="path174" /><path
               class="cls-3"
               d="m 2382.06,3038.07 c -11.2,0 -22.2,-1.27 -32.83,-3.85 -26.96,-6.56 -62.35,-24.31 -88.84,-70.48 -19.52,25.99 -50.75,38.87 -88.24,35.2 -55.18,-5.38 -117.95,-47.08 -149.16,-117.15 -2.69,3.33 -5.55,5.98 -8.35,8.09 -17.59,13.23 -43.57,13.34 -73.17,0.3 -75.17,-33.13 -161.64,-138.97 -180.73,-273.33 -73.96,17.88 -109.18,-3.29 -125.83,-25.21 -29.61,-38.99 -21.53,-110.65 19.7,-187.76 -51.89,6.67 -84.14,-1.65 -100.34,-25.54 -34.41,-50.76 22.02,-159.13 133.03,-328.31 -63.53,-11.65 -79.54,-42.95 -81.16,-68.58 -5.87,-93.07 179.8,-234.23 330.31,-279.83 -36.18,-31.77 -47.25,-69.01 -29.39,-103.33 31.79,-61.1 148.51,-91.11 278.1,-45.12 -4.18,-54.4 14.14,-93.61 52,-109.39 69.92,-29.13 178.5,28.27 258.86,134.63 70.83,-109.99 180.3,-178.47 246.72,-151.51 23.43,9.51 58.22,38.15 42.54,123.94 166.41,-23.08 269.55,-8.15 291.37,42.52 8.63,20.02 7.54,51.98 -38.21,96.14 131.6,18.35 242.17,114.13 283.6,203.03 19.57,42 20.53,77.46 2.7,99.85 -7,8.79 -18.77,17.73 -38.45,21.12 115,92.63 187.48,225.37 156.12,296.52 -9.09,20.62 -34.27,50.97 -103.26,41.87 46.52,116.9 24.25,228.82 -28.11,274.14 -27.24,23.57 -60.47,28.04 -93.49,13.27 -25.91,121.19 -91.8,247.3 -160.89,252.47 -17.83,1.36 -40.86,-4.91 -61,-35.53 -17.6,45.09 -58.82,86.46 -100.51,112.41 -49.72,30.94 -97.28,39.49 -127.21,22.86 -8.47,-4.71 -17.87,-12.69 -24.38,-26.17 -21.91,29.32 -51.43,50 -85.76,59.58 -49.77,13.89 -106.11,3.08 -159.7,-30.4 -36.03,28.3 -77.21,43.56 -116.06,43.56 z m -121.05,-122.61 c 6.12,0 11.65,3.73 13.93,9.44 17.47,43.75 45.62,71.47 81.38,80.17 41.12,10.01 90.1,-5.11 130.94,-40.47 5.13,-4.45 12.62,-4.89 18.25,-1.07 48.95,33.25 100.17,44.79 144.25,32.49 37.94,-10.59 68.84,-38.22 87,-77.8 2.93,-6.41 9.96,-9.9 16.83,-8.4 6.89,1.51 11.8,7.61 11.8,14.66 0,20.76 5.77,34.49 17.14,40.81 19.66,10.92 57.65,2.24 96.79,-22.11 47.58,-29.61 97.66,-84.43 95.16,-134.82 -0.37,-7.48 4.83,-14.09 12.19,-15.48 7.38,-1.39 14.62,2.86 17.01,9.96 9.41,27.95 25.9,60.83 50.76,59.02 44.83,-3.36 113.21,-110.29 137.62,-248.37 0.88,-5.01 4.25,-9.23 8.94,-11.21 4.69,-1.98 10.06,-1.44 14.27,1.42 27.73,18.88 54.07,18.76 76.16,-0.35 46.73,-40.45 63.45,-153.28 8.95,-265.03 -2.55,-5.24 -1.85,-11.48 1.82,-16.01 3.67,-4.53 9.64,-6.53 15.28,-5.12 36.59,9.11 83.19,13.17 97.49,-19.26 25.6,-58.07 -51.59,-200.01 -185.84,-289.17 -6,-3.98 -8.32,-11.67 -5.53,-18.31 2.79,-6.63 9.89,-10.34 16.96,-8.85 30.01,6.41 51.58,3.61 60.72,-7.89 10.07,-12.64 7.66,-38.24 -6.43,-68.49 -35.46,-76.11 -150.02,-184.98 -293.68,-188.74 -6.33,-0.17 -11.88,-4.29 -13.86,-10.31 -1.98,-6.02 0.03,-12.63 5.03,-16.52 43.66,-33.99 64.88,-65.54 56.75,-84.4 -12.05,-27.96 -92.83,-50.39 -280.84,-21.59 -4.99,0.77 -9.99,-1.02 -13.37,-4.74 -3.38,-3.72 -4.67,-8.89 -3.44,-13.77 14.96,-58.95 7.67,-99.2 -20,-110.43 -49.78,-20.22 -155.05,43.18 -221.39,158.29 -2.57,4.46 -7.25,7.29 -12.4,7.5 -5.1,0.19 -10.04,-2.24 -12.95,-6.48 -79.59,-115.63 -184.49,-164.01 -236.02,-142.53 -29.8,12.42 -40.66,48.68 -30.56,102.11 1.03,5.43 -1.02,11 -5.33,14.47 -4.31,3.47 -10.19,4.28 -15.27,2.13 -133.16,-56.49 -240.55,-22.87 -263.87,21.97 -13.8,26.54 2.54,56.91 44.85,83.32 5.18,3.23 7.88,9.27 6.84,15.29 -1.04,6.01 -5.62,10.79 -11.58,12.09 -161.85,35.34 -342.19,185.46 -337.7,256.74 1.93,30.63 43.61,40.74 78.23,43.83 5.26,0.47 9.89,3.68 12.18,8.44 2.3,4.76 1.91,10.38 -1.01,14.78 -57.73,87.14 -177.84,268.47 -146.38,314.88 11.14,16.44 46.26,19.03 101.56,7.49 5.92,-1.24 11.95,1.18 15.39,6.12 3.43,4.95 3.58,11.47 0.37,16.56 -46.93,74.44 -62.4,149.2 -37.63,181.82 22.03,28.98 72.23,21.42 110.48,9.97 4.3,-1.28 8.95,-0.58 12.67,1.92 3.73,2.5 6.13,6.55 6.56,11.01 13.38,139.42 104.57,239.67 165.06,266.33 18.94,8.35 34.62,9.5 43.03,3.18 8.85,-6.66 11.99,-23.17 8.84,-46.51 -0.09,-0.67 -0.14,-1.34 -0.14,-2 0,-7.4 5.46,-13.85 12.99,-14.87 8.19,-1.08 15.76,4.65 16.87,12.86 11.99,88.84 80.54,147.92 139.89,153.7 20.54,2 57.26,-0.97 71.75,-43.46 2.03,-5.94 7.54,-9.99 13.81,-10.15 0.13,0 0.26,0 0.39,0 z"
               id="path176"
               style="fill:#28150f" /><path
               class="cls-4"
               d="m 2395.08,2229.58 c 0,0 -188.27,-83.82 -325.22,32.8 -166.17,299.37 -173.19,61.99 -113.92,-153.81 54.8,-199.51 226.61,-359.06 314.35,-209.79 175.74,-59.12 166.12,158.65 124.79,330.81 z"
               id="path178" /><path
               class="cls-4"
               d="m 2604.6,2229.58 c 0,0 182.82,-72.98 323.87,51.72 72.71,122.23 156.09,50.57 43.13,-152.26 72.62,31.96 37.77,-45.35 -25.97,-145.16 -60.53,-83.99 -145.31,-112.2 -207.58,-20.08 -173.35,-48.1 -170.33,114.13 -133.45,265.77 z"
               id="path180" /><path
               class="cls-3"
               d="m 2497.11,2339.36 h -0.18 c -5.24,-0.06 -10.07,-2.86 -12.74,-7.38 -44.41,-75.26 -127.27,-117.57 -227.15,-116.58 -100.2,1.17 -192.64,46.87 -230.01,113.72 -4.04,7.22 -13.18,9.81 -20.41,5.77 -7.23,-4.04 -9.81,-13.18 -5.77,-20.41 42.43,-75.91 145.25,-127.79 255.84,-129.08 1.47,-0.02 2.94,-0.03 4.39,-0.03 100.31,0 184.99,40.39 236.33,111.98 70.16,-93.74 184.98,-117.94 272.79,-108.3 97.24,10.67 175.3,60.82 198.87,127.76 2.75,7.81 -1.36,16.38 -9.17,19.13 -7.81,2.76 -16.38,-1.36 -19.13,-9.17 -19.76,-56.13 -87.99,-98.48 -173.84,-107.9 -84.38,-9.26 -196.22,15.67 -257.08,113.4 -2.74,4.4 -7.56,7.07 -12.73,7.07 z"
               id="path182"
               style="fill:#28150f" /><path
               class="cls-3"
               d="m 2297.51,2144.04 c -8.29,0 -15,-6.72 -15,-15 0,-41.74 -33.96,-75.7 -75.7,-75.7 -41.74,0 -75.7,33.96 -75.7,75.7 0,8.28 -6.71,15 -15,15 -8.29,0 -15,-6.72 -15,-15 0,-58.29 47.42,-105.7 105.7,-105.7 58.28,0 105.7,47.42 105.7,105.7 0,8.28 -6.71,15 -15,15 z"
               id="path184"
               style="fill:#28150f" /><path
               class="cls-3"
               d="m 2878.12,2144.04 c -8.29,0 -15,-6.72 -15,-15 0,-41.74 -33.96,-75.7 -75.7,-75.7 -41.74,0 -75.7,33.96 -75.7,75.7 0,8.28 -6.71,15 -15,15 -8.29,0 -15,-6.72 -15,-15 0,-58.29 47.42,-105.7 105.7,-105.7 58.28,0 105.7,47.42 105.7,105.7 0,8.28 -6.71,15 -15,15 z"
               id="path186"
               style="fill:#28150f" /><path
               class="cls-2"
               d="m 2631.88,2545.83 c -15.06,109.87 -74.37,253.35 -145.16,253.35 -70.79,0 -130.1,-143.37 -145.37,-253.14 57.94,-9.06 117.14,-54.46 145.37,-124.93 33.08,70.79 89.22,116.61 145.16,124.72 z"
               id="path188" /><path
               class="cls-5"
               d="m 2622.93,2594.29 c -23.28,99.34 -75.53,204.89 -136.21,204.89 -60.68,0 -113.03,-105.55 -136.31,-204.89 34.97,-36.76 95.12,-33.32 134.02,14.8 38.21,-41.98 103.52,-51.57 138.5,-14.8 z"
               id="path190" /><path
               class="cls-10"
               d="m 2517.18,2637.08 c 26.27,-4.89 48.45,20.71 40.13,46.1 -17.73,54.11 -47.24,102.64 -80.62,102.64 -33.38,0 -63.8,-49.93 -81.44,-104.97 -7.91,-24.67 13.06,-49.63 38.63,-45.47 14.74,2.4 29.51,10.75 41.3,25.34 11.48,-12.61 26.68,-20.78 42,-23.64 z"
               id="path192" /><path
               class="cls-3"
               d="m 2486.72,2814.18 c -84.98,0 -144.85,-155.59 -160.23,-266.07 -1.13,-8.11 4.45,-15.62 12.54,-16.89 56.66,-8.86 109.16,-54.27 133.77,-115.7 2.23,-5.55 7.53,-9.25 13.51,-9.42 6.18,-0.03 11.48,3.23 14.01,8.65 29.94,64.07 81.18,108.61 133.73,116.23 8.15,1.18 13.83,8.72 12.71,16.88 -14.73,107.4 -75.77,266.31 -160.02,266.31 z m -128.37,-256.3 c 18.45,109.59 75.07,226.3 128.37,226.3 53.3,0 109.94,-116.77 128.18,-226.44 -49.08,-12.37 -95.47,-50.15 -127.48,-103.42 -29.2,52 -76.84,90.46 -129.07,103.56 z"
               id="path194"
               style="fill:#28150f" /><path
               class="cls-3"
               d="m 2319.72,2562.82 c -56.71,0 -103.9,-33.82 -126.27,-92.32 -2.96,-7.74 0.91,-16.41 8.65,-19.37 7.75,-2.95 16.41,0.92 19.37,8.65 20.69,54.09 63.52,80.14 117.5,71.45 56.72,-8.87 109.22,-54.28 133.83,-115.71 2.23,-5.55 7.53,-9.25 13.51,-9.42 6.18,-0.03 11.48,3.23 14.01,8.65 32.84,70.29 90.66,116.35 147.3,117.34 43.11,0.85 80.23,-25.45 104.91,-73.78 3.77,-7.38 12.82,-10.3 20.18,-6.54 7.38,3.77 10.31,12.8 6.54,20.18 -29.73,58.22 -75.74,90.15 -129.75,90.15 -0.8,0 -1.6,0 -2.41,-0.02 -60.13,-1.05 -120.46,-42.48 -159.66,-107.76 -31.92,56.83 -85.86,97.48 -143.74,106.54 -8.14,1.31 -16.14,1.95 -23.95,1.95 z"
               id="path196"
               style="fill:#28150f" /><path
               class="cls-3"
               d="m 2611.7,2290.2 c 0,69.05 -71.5,135.56 -125.02,135.56 -53.52,0 -125.03,-66.51 -125.03,-135.56 0,-69.05 55.98,-72.35 125.03,-72.35 69.05,0 125.02,3.31 125.02,72.35 z"
               id="path198"
               style="fill:#28150f" /><path
               class="cls-1"
               d="m 2512.91,2278.07 c 0,9.82 -23.42,17.79 -52.31,17.79 -69.19,0 -69.92,-35.58 0,-35.58 28.89,0 52.31,7.96 52.31,17.79 z"
               id="path200" /></g><path
             class="cls-3"
             d="m 4160.7544,3434.0821 -3321.47306,0.1021 c 0,0 -2.82208,-7.3505 -5.72711,-15.1042 -2.80613,-7.4897 -5.58949,-15 -5.58949,-15 H 4172.0411 c 0,0 -5.2905,14.1946 -5.6484,15.1931 -0.3031,0.8455 -5.6383,14.809 -5.6383,14.809 z"
             id="path204"
             style="fill:#28150f"
             sodipodi:nodetypes="ccsccsc" /></g><g
           id="g220"><path
             class="cls-1"
             d="m 3104.35,3439.41 c 0.72,8.59 2.84,17.12 6.18,25.6 22.89,59.12 101.65,110.2 152.44,96.73 53.29,-9.44 50.4,-51.29 75.94,-44.92 12.09,2.51 8.3,8.47 29.33,23.74 0.09,0 4.33,2.73 9.31,5.62 26.39,13.46 59.33,12.7 78,4.08 2.88,-0.49 13.06,-6.14 15.8,-7.85 26.76,-17 23.54,-31.86 40.36,-33.09 0.92,-0.51 8.05,-0.04 12.39,3.06 3.26,1.84 4.19,3.95 7.71,7.75 64.79,73.93 174.47,-7.94 198.65,-82.35 3.42,-10.53 5.15,-21 4.76,-30.82 -4.42,-110.17 -153.62,-298.73 -327.94,-291.74 -178.44,7.16 -315.7,218.65 -302.94,324.17 z"
             id="path208" /><path
             class="cls-8"
             d="m 3110.52,3465.01 c 22.89,59.12 101.65,110.2 152.44,96.73 53.29,-9.44 50.4,-51.29 75.94,-44.92 12.09,2.51 8.3,8.47 29.33,23.74 0.09,0 4.33,2.73 9.31,5.62 26.39,13.46 59.33,12.7 78,4.08 2.88,-0.49 13.06,-6.14 15.8,-7.85 26.76,-17 23.54,-31.86 40.36,-33.09 0.92,-0.51 8.05,-0.04 12.39,3.06 3.26,1.84 4.19,3.95 7.71,7.75 64.79,73.93 174.47,-7.94 198.65,-82.35 -33.17,-109.86 -166.94,-254.92 -320.22,-248.77 -154.4,6.2 -276.69,163.6 -299.72,275.99 z"
             id="path210" /><path
             class="cls-11"
             d="m 3108.05,3457.06 q -0.09,0.1 0,0.19 c 23.36,80.18 152.74,153.2 210.47,67.43 6.11,-8.77 15.04,-8.1 15.96,-8.32 q 0.1,0.09 0.19,0.09 c 15.75,0.4 11.47,8.16 33.57,24.13 0.09,0 4.33,2.73 9.31,5.62 27.06,13.81 59.52,12.6 78,4.08 2.88,-0.49 13.06,-6.14 15.8,-7.85 26.76,-17 23.54,-31.86 40.36,-33.09 0.92,-0.51 8.05,-0.04 12.39,3.06 3.26,1.84 4.19,3.95 7.71,7.75 26.01,29.59 51.77,27.34 60.75,29.22 53.96,4.77 126.68,-62.13 140.06,-118.59 0,-0.09 0,-0.19 -0.11,-0.37 -2.57,-10.48 -6.2,-21.39 -10.67,-32.45 -36.4,75.37 -156.38,138.08 -201.86,11.57 -18.35,86.39 -142.42,136.67 -184.76,-1.43 -44.8,128.75 -147.58,100.43 -219.48,16.44 -3.48,11.19 -6.05,22.07 -7.69,32.53 z"
             id="path212" /><path
             class="cls-3"
             d="m 3247.66,3578.07 c -6.15,0 -12.47,-0.5 -18.93,-1.51 -59.33,-9.25 -118.35,-59.33 -134.81,-114.25 -0.35,-0.95 -0.61,-1.95 -0.77,-2.95 -14.21,-55.84 9.94,-135.3 63.3,-207.94 66.89,-91.06 160.44,-147.58 250.24,-151.18 111.49,-4.51 197.56,64.71 238.92,106.35 61.15,61.55 102.2,139.97 104.6,199.78 2.08,51.97 -40.54,104.68 -83.7,133.86 -38.79,26.29 -63.32,24.75 -72.58,24.16 l -0.81,-0.05 c -0.71,0.05 -1.43,0.04 -2.13,-0.02 -27.41,-2.21 -52.38,-14.33 -70.29,-34.12 l -1.68,-1.84 c -3.16,-3.48 -3.75,-4.11 -5.29,-4.17 -0.4,0.06 -0.81,0.09 -1.22,0.11 -1.64,0.12 -1.71,0.13 -5.88,5.52 -4.83,6.25 -12.13,15.69 -27.24,25.27 -0.64,0.4 -11.28,6.94 -18.62,9.28 -21.13,9.23 -57.87,11.6 -90.03,-4.83 -0.2,-0.1 -0.41,-0.21 -0.61,-0.33 -3.4,-1.94 -6.45,-3.85 -8.26,-4.98 l -0.83,-0.52 c -0.54,-0.3 -1.07,-0.63 -1.57,-0.99 -10.63,-7.68 -16.14,-13.93 -19.79,-18.06 -1.03,-1.18 -2.31,-2.62 -2.87,-3.08 -0.05,0.05 -0.84,-0.11 -2.53,-0.16 v 0 c -1.57,0.14 -2.49,0.44 -3.46,1.83 -19.7,29.25 -48.81,44.81 -83.16,44.81 z m 347.12,-13.92 c -0.4,0.07 -0.8,0.12 -1.21,0.16 0.48,-0.03 0.88,-0.1 1.21,-0.16 z m -472.05,-110.2 c 13.1,43.18 63.51,85.62 110.62,92.97 21.52,3.35 51.59,0.76 72.73,-30.63 4.42,-6.34 12.47,-13.84 26.51,-14.82 1.34,-0.17 2.69,-0.16 4.01,0.03 13.42,0.73 19.32,6.24 25.57,13.32 3.02,3.42 6.76,7.66 14.31,13.19 0.46,0.27 0.89,0.54 1.31,0.81 1.51,0.95 4.05,2.54 6.89,4.17 22.46,11.34 50.02,10.37 64.61,3.66 0.88,-0.41 1.8,-0.72 2.74,-0.95 2.3,-0.9 8.82,-4.41 11.44,-6.03 10.51,-6.66 15.23,-12.78 19.41,-18.18 5.29,-6.85 11.83,-15.31 26,-16.95 0.79,-0.16 1.6,-0.26 2.41,-0.29 16.59,-0.66 23.98,7.43 29.9,13.93 l 1.61,1.76 c 12.5,13.81 30.47,22.61 49.58,24.41 1.16,-0.01 2.29,0.04 3.45,0.12 6.47,0.41 23.56,1.49 53.87,-19.06 35.12,-23.74 72.16,-67.6 70.54,-107.82 -2.08,-51.91 -40.62,-124.18 -95.9,-179.83 -37.9,-38.14 -116.31,-101.59 -216.44,-97.52 -80.76,3.24 -165.72,55.19 -227.27,138.97 -47.86,65.15 -70.66,137.36 -58.09,183.96 0.07,0.27 0.14,0.53 0.19,0.8 z m 330.38,81.52 c -0.22,0.03 -0.47,0.08 -0.76,0.15 0.25,-0.06 0.51,-0.1 0.76,-0.15 z m -120.56,-34 c -0.89,0.09 -1.64,0.3 -2.08,0.43 0.69,-0.19 1.39,-0.33 2.08,-0.43 z"
             id="path214"
             style="fill:#28150f" /><path
             class="cls-3"
             d="m 3511.93,3524.27 c -0.41,0 -0.83,-0.02 -1.25,-0.05 -8.26,-0.69 -14.39,-7.93 -13.71,-16.19 l 9.02,-108.64 c 0.69,-8.25 7.91,-14.38 16.19,-13.71 8.26,0.69 14.4,7.93 13.71,16.19 l -9.02,108.64 c -0.65,7.83 -7.21,13.76 -14.93,13.76 z"
             id="path216"
             style="fill:#28150f" /><path
             class="cls-3"
             d="m 3332.89,3531.46 c -0.41,0 -0.83,-0.02 -1.25,-0.05 -8.26,-0.69 -14.39,-7.93 -13.71,-16.19 l 9.02,-108.64 c 0.68,-8.25 7.98,-14.38 16.19,-13.71 8.26,0.69 14.39,7.93 13.71,16.19 l -9.02,108.64 c -0.65,7.83 -7.21,13.76 -14.93,13.76 z"
             id="path218"
             style="fill:#28150f" /></g><g
           id="g234"><path
             class="cls-1"
             d="m 1869,3439.41 c -0.72,8.59 -2.84,17.12 -6.18,25.6 -22.89,59.12 -101.65,110.2 -152.44,96.73 -53.29,-9.44 -50.4,-51.29 -75.94,-44.92 -12.09,2.51 -8.3,8.47 -29.34,23.74 -0.09,0 -4.32,2.73 -9.31,5.62 -26.39,13.46 -59.34,12.7 -78,4.08 -2.88,-0.49 -13.06,-6.14 -15.8,-7.85 -26.76,-17 -23.54,-31.86 -40.36,-33.09 -0.92,-0.51 -8.05,-0.04 -12.39,3.06 -3.26,1.84 -4.19,3.95 -7.71,7.75 -64.79,73.93 -174.47,-7.94 -198.65,-82.35 -3.42,-10.53 -5.15,-21 -4.76,-30.82 4.42,-110.17 153.62,-298.73 327.94,-291.74 178.44,7.16 315.7,218.65 302.94,324.17 z"
             id="path222" /><path
             class="cls-8"
             d="m 1862.82,3465.01 c -22.89,59.12 -101.65,110.2 -152.44,96.73 -53.29,-9.44 -50.4,-51.29 -75.94,-44.92 -12.09,2.51 -8.3,8.47 -29.34,23.74 -0.09,0 -4.32,2.73 -9.31,5.62 -26.39,13.46 -59.34,12.7 -78,4.08 -2.88,-0.49 -13.06,-6.14 -15.8,-7.85 -26.76,-17 -23.54,-31.86 -40.36,-33.09 -0.92,-0.51 -8.05,-0.04 -12.39,3.06 -3.26,1.84 -4.19,3.95 -7.71,7.75 -64.79,73.93 -174.47,-7.94 -198.65,-82.35 33.16,-109.86 166.94,-254.92 320.22,-248.77 154.4,6.2 276.69,163.6 299.72,275.99 z"
             id="path224" /><path
             class="cls-11"
             d="m 1865.29,3457.06 q 0.09,0.1 0,0.19 c -23.36,80.18 -152.74,153.2 -210.47,67.43 -6.11,-8.77 -15.04,-8.1 -15.96,-8.32 q -0.1,0.09 -0.19,0.09 c -15.75,0.4 -11.47,8.16 -33.57,24.13 -0.09,0 -4.32,2.73 -9.31,5.62 -27.06,13.81 -59.52,12.6 -78,4.08 -2.88,-0.49 -13.06,-6.14 -15.8,-7.85 -26.76,-17 -23.54,-31.86 -40.36,-33.09 -0.92,-0.51 -8.05,-0.04 -12.39,3.06 -3.26,1.84 -4.19,3.95 -7.71,7.75 -26.01,29.59 -51.77,27.34 -60.75,29.22 -53.96,4.77 -126.68,-62.13 -140.06,-118.59 0,-0.09 0,-0.19 0.11,-0.37 2.57,-10.48 6.2,-21.39 10.67,-32.45 36.4,75.37 156.38,138.08 201.86,11.57 18.35,86.39 142.42,136.67 184.76,-1.43 44.8,128.75 147.58,100.43 219.48,16.44 3.48,11.19 6.05,22.07 7.69,32.53 z"
             id="path226" /><path
             class="cls-3"
             d="m 1725.7,3578.07 c -34.36,0 -63.5,-15.58 -83.32,-45.02 -0.84,-1.2 -1.74,-1.49 -3.32,-1.62 v 0 c -2.09,0.06 -2.79,0.28 -2.82,0.29 -0.13,0.18 -1.49,1.71 -2.58,2.95 -3.64,4.13 -9.16,10.38 -19.78,18.06 -0.5,0.36 -1.03,0.7 -1.57,0.99 l -0.84,0.52 c -1.8,1.13 -4.85,3.03 -8.26,4.98 -0.2,0.11 -0.4,0.22 -0.61,0.33 -32.18,16.44 -68.9,14.06 -90.03,4.83 -7.34,-2.34 -17.96,-8.87 -18.47,-9.19 -15.25,-9.67 -22.55,-19.11 -27.38,-25.36 -4.16,-5.39 -4.24,-5.39 -6.19,-5.53 -0.3,-0.02 -0.61,-0.06 -0.91,-0.1 -1.55,0.06 -2.13,0.7 -5.29,4.18 l -1.81,1.98 c -17.78,19.65 -42.75,31.77 -70.16,33.98 -0.71,0.06 -1.43,0.07 -2.13,0.02 l -0.81,0.05 c -9.25,0.59 -33.79,2.14 -72.6,-24.17 -43.14,-29.18 -85.77,-81.89 -83.68,-133.85 2.4,-59.81 43.46,-138.23 104.6,-199.78 41.36,-41.64 127.33,-110.89 238.92,-106.35 89.79,3.6 183.33,60.11 250.23,151.17 53.6,72.96 77.73,152.81 63.11,208.69 -0.08,0.45 -0.19,0.89 -0.32,1.33 v 0 c -16.09,55.26 -75.43,105.83 -135.07,115.13 -6.46,1.01 -12.77,1.5 -18.91,1.5 z m -347.13,-13.92 c 0.33,0.06 0.73,0.13 1.21,0.16 -0.41,-0.04 -0.81,-0.09 -1.21,-0.16 z m 262.19,-62.68 c 14.11,1.06 22.1,8.51 26.36,14.61 21.3,31.61 51.38,34.2 72.88,30.84 47.11,-7.35 97.52,-49.8 110.62,-92.97 0.05,-0.27 0.12,-0.53 0.19,-0.8 12.57,-46.6 -10.23,-118.82 -58.1,-183.97 -61.54,-83.77 -146.5,-135.72 -227.26,-138.96 -100.21,-4.06 -178.55,59.38 -216.44,97.52 -55.28,55.65 -93.82,127.92 -95.9,179.83 -1.62,40.22 35.42,84.08 70.52,107.81 30.34,20.57 47.43,19.47 53.89,19.07 1.16,-0.08 2.3,-0.13 3.45,-0.12 19.11,-1.79 37.07,-10.6 49.44,-24.26 l 1.73,-1.89 c 5.92,-6.51 13.39,-14.63 29.91,-13.94 0.87,0.03 1.73,0.15 2.57,0.33 14.14,1.77 20.6,10.13 25.84,16.91 4.18,5.4 8.9,11.52 19.56,18.27 2.48,1.53 9,5.04 11.29,5.94 0.94,0.23 1.86,0.54 2.74,0.95 14.6,6.71 42.15,7.68 64.61,-3.66 2.84,-1.63 5.38,-3.22 6.89,-4.17 0.42,-0.26 0.85,-0.53 1.31,-0.81 7.54,-5.53 11.28,-9.77 14.31,-13.19 6.24,-7.08 12.15,-12.59 25.56,-13.32 1.33,-0.19 2.68,-0.2 4.02,-0.03 z m -120.52,34 c 0.25,0.04 0.51,0.09 0.76,0.15 -0.29,-0.07 -0.55,-0.11 -0.76,-0.15 z m 120.8,-33.96 c 0.61,0.09 1.22,0.22 1.82,0.39 -0.38,-0.11 -0.99,-0.28 -1.82,-0.39 z"
             id="path228"
             style="fill:#28150f" /><path
             class="cls-3"
             d="m 1461.41,3524.27 c -7.72,0 -14.28,-5.93 -14.93,-13.76 l -9.02,-108.64 c -0.69,-8.25 5.45,-15.5 13.71,-16.19 8.25,-0.67 15.5,5.45 16.19,13.71 l 9.02,108.64 c 0.69,8.25 -5.45,15.5 -13.71,16.19 -0.42,0.03 -0.84,0.05 -1.26,0.05 z"
             id="path230"
             style="fill:#28150f" /><path
             class="cls-3"
             d="m 1640.45,3531.46 c -7.72,0 -14.28,-5.93 -14.93,-13.76 l -9.02,-108.64 c -0.69,-8.25 5.45,-15.5 13.71,-16.19 8.23,-0.67 15.5,5.45 16.19,13.71 l 9.02,108.64 c 0.69,8.25 -5.45,15.5 -13.71,16.19 -0.42,0.03 -0.84,0.05 -1.25,0.05 z"
             id="path232"
             style="fill:#28150f" /></g><g
           aria-label="MIMOS"
           id="text499"
           style="font-size:491.716px;font-family:'Fruity Juice';-inkscape-font-specification:'Fruity Juice, Normal';fill:#28150f;stroke-width:12.2085"><g
             id="path3174"><path
               style="color:#000000;-inkscape-font-specification:'Fruity Juice, Normal';-inkscape-stroke:none"
               d="m 1843.0981,3686.8007 q 72.5089,0 86.9147,126.2903 v 27.8511 q 0,227.1306 -19.6879,254.9817 -22.569,25.21 -47.5389,25.21 -56.1824,-12.0048 -56.1824,-53.3012 11.2845,-182.953 11.2845,-212.7248 v -2.8812 h -2.8812 q -34.5737,80.4321 -69.8678,117.6469 -22.569,16.8067 -50.4201,16.8067 -51.3805,0 -100.8402,-100.8402 h -2.8812 v 86.9147 q 0,63.6253 5.5222,120.2879 -13.4453,50.4201 -50.4201,50.4201 h -8.4033 q -55.9423,0 -55.9423,-97.959 -2.8812,-96.7586 -2.8812,-151.2603 0.9604,-137.815 14.4058,-164.2255 13.6854,-26.4105 58.5833,-34.8139 h 11.0444 q 56.4225,0 131.8126,143.0971 h 2.641 q 64.8259,-151.5004 145.7381,-151.5004 z"
               id="path3261" /><path
               style="color:#000000;-inkscape-font-specification:'Fruity Juice, Normal';-inkscape-stroke:none"
               d="m 1843.0977,3680.6973 c -28.8757,0 -56.2169,13.6825 -81.2891,39.7461 -23.6106,24.5441 -45.5435,60.2357 -66.2188,106.8222 -23.5684,-43.7209 -45.8401,-77.4207 -67.0293,-100.4238 -22.5568,-24.488 -44.2665,-37.7422 -65.6542,-37.7422 h -11.6114 l -0.5566,0.1035 c -30.9583,5.7944 -52.6224,18.2126 -62.8789,38.0059 l -0.01,0.02 -0.012,0.019 c -5.4423,10.6901 -8.54,28.8546 -10.9649,56.4981 -2.4248,27.6435 -3.7827,64.4189 -4.1035,110.4551 v 0.021 0.021 c 0,36.442 0.961,86.9017 2.8828,151.4414 v -0.1816 c 0,33.234 4.5963,58.6478 14.7891,76.4961 10.1927,17.8483 26.8289,27.5664 47.2578,27.5664 h 8.4023 c 13.7123,0 25.9498,-4.9341 35.4082,-14.3926 9.4585,-9.4584 16.2489,-23.0789 20.9102,-40.5586 l 0.2851,-1.0664 -0.1074,-1.0976 c -3.6601,-37.5555 -5.4941,-77.4571 -5.4941,-119.6973 v -67.623 c 13.8551,25.7314 27.9011,46.157 42.4004,60.6562 17.5397,17.5398 36.0932,26.9981 55.2168,26.9981 19.7952,0 38.0556,-6.0928 54.0664,-18.0157 l 0.4218,-0.3144 0.3614,-0.3809 c 21.0624,-22.2086 41.4677,-54.993 61.6132,-98.3633 -1.2623,32.5092 -4.7572,95.8855 -10.6699,191.7461 l -0.012,0.1875 v 0.1875 c 0,15.1496 5.4415,28.4353 15.9473,38.4024 10.5058,9.967 25.6356,16.7181 45.0625,20.8691 l 0.6308,0.1348 h 0.6446 c 18.7009,0 36.2957,-9.602 52.0878,-27.2422 l 0.2344,-0.2617 0.2012,-0.2871 c 4.41,-6.2386 7.098,-15.4611 9.6269,-28.7637 2.529,-13.3027 4.5909,-30.5738 6.2422,-51.9609 3.3028,-42.7744 4.9395,-101.983 4.9395,-177.7813 v -28.1973 l -0.039,-0.3457 c -4.8673,-42.6696 -14.5841,-75.1318 -29.9687,-97.4863 -15.3847,-22.3545 -37.0702,-34.2148 -63.0117,-34.2148 z m 0,12.207 c 22.3976,0 39.3681,9.1874 52.955,28.9297 13.5537,19.6939 23.1069,50.285 27.8555,91.6543 v 27.4531 c 0,75.6219 -1.6444,134.6223 -4.9043,176.8418 -1.6299,21.1098 -3.6695,38.0315 -6.0625,50.6191 -2.354,12.3822 -5.3403,20.6193 -7.4863,23.7852 -13.9863,15.4972 -27.7891,22.6023 -42.0508,22.8027 -17.6613,-3.8606 -30.4407,-9.9153 -38.5547,-17.6132 -8.2046,-7.7839 -12.1205,-17.1294 -12.1367,-29.4727 7.5084,-121.7519 11.2793,-192.1995 11.2793,-212.7969 v -8.9844 h -13.0059 l -1.5879,3.6934 c -22.754,52.935 -45.7184,91.4404 -68.2949,115.4102 -13.9769,10.2951 -29.2019,15.3496 -46.3847,15.3496 -15.1302,0 -30.5104,-7.3483 -46.584,-23.4219 -16.0736,-16.0736 -32.4729,-40.7637 -48.7754,-74.002 l -1.6758,-3.416 h -12.791 v 93.0176 c 0,42.1276 1.8231,81.9865 5.4453,119.6152 -4.2864,15.6341 -10.2613,26.9703 -17.4629,34.1719 -7.3482,7.3482 -15.8378,10.8184 -26.7754,10.8184 h -8.4023 c -16.866,0 -28.2016,-6.6094 -36.6563,-21.4141 -8.4546,-14.8047 -13.1836,-38.3694 -13.1836,-70.4414 v -0.092 -0.09 c -1.9192,-64.4513 -2.8783,-114.8128 -2.8789,-151.0371 v -0.014 c 0,-0.01 0,-0.02 0,-0.027 0.32,-45.819 1.6823,-82.3423 4.0586,-109.4316 2.3756,-27.082 6.1582,-45.0818 9.6777,-52.0078 7.9497,-15.3195 25.2029,-26.0581 53.7949,-31.4961 h 10.3985 c 16.2272,0 35.2931,10.5936 56.6738,33.8047 21.3806,23.211 44.7546,58.612 69.7383,106.0332 l 1.7168,3.2598 h 10.3515 l 1.586,-3.7032 c 21.4279,-50.0778 44.1276,-87.3584 67.6347,-111.7949 23.5071,-24.4365 47.4245,-36.0039 72.4903,-36.0039 z"
               id="path3263" /></g><g
             id="path3176"><path
               style="color:#000000;-inkscape-font-specification:'Fruity Juice, Normal';-inkscape-stroke:none"
               d="m 2042.3776,3759.3096 q 58.1031,0 67.2268,95.318 5.5222,51.1404 5.5222,84.0335 0,140.6961 -22.3289,168.5472 -21.6087,19.4477 -42.0168,19.4477 h -5.7623 q -53.0611,-9.3637 -53.0611,-53.0611 11.0444,-98.6794 11.0444,-140.6961 0,-47.2989 -16.8067,-117.6469 12.2448,-55.9423 56.1824,-55.9423 z m -9.1237,-25.9304 q -28.8115,0 -49.4597,-20.8883 -20.4081,-21.1284 -20.4081,-50.6602 0,-29.7718 20.4081,-50.6602 20.6482,-21.1284 49.4597,-21.1284 29.0516,0 49.4597,21.1284 20.4082,20.8884 20.4082,50.6602 0,29.5318 -20.4082,50.6602 -20.4081,20.8883 -49.4597,20.8883 z"
               id="path3267" /><path
               style="color:#000000;-inkscape-font-specification:'Fruity Juice, Normal';-inkscape-stroke:none"
               d="m 2033.2539,3583.9375 c -20.6998,0 -39.0688,7.8662 -53.8262,22.9668 -14.6184,14.9625 -22.1465,33.6831 -22.1464,54.9258 0,21.0939 7.5303,39.7946 22.123,54.9023 l 0.023,0.025 0.025,0.025 c 14.7634,14.935 33.118,22.7012 53.8008,22.7012 20.8307,0 39.209,-7.7674 53.8262,-22.7285 l 0.012,-0.012 0.012,-0.012 c 14.5928,-15.1077 22.1231,-33.8083 22.1231,-54.9023 0,-21.2308 -7.5206,-39.9421 -22.1231,-54.9004 l -0.01,-0.01 c -14.6101,-15.1227 -32.999,-22.9863 -53.8438,-22.9863 z m 0,12.209 c 17.8879,0 32.4685,6.2211 45.0684,19.2656 l 0.014,0.012 0.012,0.012 c 12.5923,12.8887 18.6699,27.9415 18.6699,46.3946 0,18.2774 -6.0754,33.3488 -18.6875,46.4101 0,0 0,0.01 -0.01,0.01 -12.5878,12.872 -27.1758,19.0254 -45.0684,19.0254 -17.7177,0 -32.3259,-6.1529 -45.0859,-19.0469 -12.6047,-13.0587 -18.6778,-28.1262 -18.6778,-46.3984 0,-18.4526 6.0783,-33.5042 18.67,-46.3926 12.7735,-13.0706 27.3782,-19.291 45.0937,-19.291 z m 9.1231,157.0586 c -15.9412,0 -29.829,5.3172 -40.3204,15.7637 -10.4913,10.4464 -17.5795,25.5862 -21.8242,44.9785 l -0.2988,1.3632 0.3242,1.3594 c 11.1326,46.5979 16.6406,85.419 16.6406,116.2285 0,27.4763 -3.6555,74.3266 -11.0078,140.0176 l -0.037,0.3379 v 0.3418 c 0,15.8012 5.0244,29.4013 15.0528,39.4297 10.0283,10.0284 24.5635,16.3801 43.0507,19.6426 l 0.5274,0.092 h 6.2969 c 15.5443,0 30.9835,-7.4094 46.0996,-21.0137 l 0.3691,-0.332 0.3105,-0.3868 c 9.012,-11.2406 14.2556,-30.5504 18.0352,-59.08 3.7796,-28.5296 5.6348,-66.227 5.6348,-113.2871 0,-22.2588 -1.8601,-50.4304 -5.5528,-84.6387 -3.1012,-32.3712 -10.2972,-57.1651 -22.4531,-74.4004 -12.1592,-17.2401 -29.811,-26.416 -50.8476,-26.416 z m 0,12.209 c 17.6986,0 30.6214,6.7116 40.871,21.2441 10.2497,14.5326 17.2967,37.3899 20.2793,68.5508 v 0.037 0.037 c 3.6664,33.9547 5.4863,61.7898 5.4863,83.377 0,46.7371 -1.8659,84.0308 -5.5293,111.6836 -3.6089,27.2415 -9.4078,45.1279 -15.1953,52.6601 -13.5303,12.0589 -25.9704,17.5469 -37.5156,17.5469 h -5.1075 c -16.6572,-2.9994 -28.5423,-8.5657 -36.1347,-16.1582 -7.6223,-7.6223 -11.4268,-17.3853 -11.4629,-30.6192 7.3335,-65.5989 11.0293,-112.4068 11.0293,-140.875 0,-31.8852 -5.6126,-71.0186 -16.6328,-117.5039 3.9379,-17.2557 10.1528,-29.7633 18.1972,-37.7734 8.2361,-8.2009 18.3565,-12.207 31.7071,-12.207 z"
               id="path3269" /></g><g
             id="path3178"><path
               style="color:#000000;-inkscape-font-specification:'Fruity Juice, Normal';-inkscape-stroke:none"
               d="m 2539.6158,3686.8007 q 72.5089,0 86.9146,126.2903 v 27.8511 q 0,227.1306 -19.6878,254.9817 -22.569,25.21 -47.539,25.21 -56.1824,-12.0048 -56.1824,-53.3012 11.2845,-182.953 11.2845,-212.7248 v -2.8812 h -2.8811 q -34.5738,80.4321 -69.8679,117.6469 -22.569,16.8067 -50.4201,16.8067 -51.3805,0 -100.8402,-100.8402 h -2.8811 v 86.9147 q 0,63.6253 5.5222,120.2879 -13.4454,50.4201 -50.4201,50.4201 h -8.4034 q -55.9423,0 -55.9423,-97.959 -2.8811,-96.7586 -2.8811,-151.2603 0.9604,-137.815 14.4057,-164.2255 13.6855,-26.4105 58.5834,-34.8139 h 11.0444 q 56.4225,0 131.8125,143.0971 h 2.6411 q 64.8258,-151.5004 145.7381,-151.5004 z"
               id="path3273" /><path
               style="color:#000000;-inkscape-font-specification:'Fruity Juice, Normal';-inkscape-stroke:none"
               d="m 2539.6152,3680.6973 c -28.8756,0 -56.2168,13.6825 -81.289,39.7461 -23.6106,24.5441 -45.5436,60.2357 -66.2188,106.8222 -23.5684,-43.7209 -45.8401,-77.4207 -67.0293,-100.4238 -22.5568,-24.488 -44.2666,-37.7422 -65.6543,-37.7422 h -11.6113 l -0.5566,0.1035 c -30.9584,5.7944 -52.6224,18.2126 -62.8789,38.0059 l -0.01,0.02 -0.012,0.019 c -5.4422,10.6901 -8.54,28.8546 -10.9649,56.4981 -2.4248,27.6435 -3.7827,64.4189 -4.1035,110.4551 v 0.021 0.021 c 0,36.442 0.9611,86.9017 2.8828,151.4414 v -0.1816 c 0,33.234 4.5963,58.6478 14.789,76.4961 10.1928,17.8483 26.8289,27.5664 47.2578,27.5664 h 8.4024 c 13.7122,0 25.9497,-4.9341 35.4082,-14.3926 9.4584,-9.4584 16.2489,-23.0789 20.9101,-40.5586 l 0.2852,-1.0664 -0.1074,-1.0976 c -3.6601,-37.5555 -5.4942,-77.4571 -5.4942,-119.6973 v -67.623 c 13.8552,25.7314 27.9012,46.157 42.4004,60.6562 17.5398,17.5398 36.0933,26.9981 55.2168,26.9981 19.7953,0 38.0557,-6.0928 54.0664,-18.0157 l 0.4219,-0.3144 0.3613,-0.3809 c 21.0625,-22.2086 41.4677,-54.993 61.6133,-98.3633 -1.2623,32.5092 -4.7572,95.8855 -10.6699,191.7461 l -0.012,0.1875 v 0.1875 c 0,15.1496 5.4414,28.4353 15.9472,38.4024 10.5059,9.967 25.6357,16.7181 45.0625,20.8691 l 0.6309,0.1348 h 0.6445 c 18.701,0 36.2957,-9.602 52.0879,-27.2422 l 0.2344,-0.2617 0.2031,-0.2871 c 4.41,-6.2386 7.0961,-15.4611 9.625,-28.7637 2.529,-13.3027 4.5909,-30.5738 6.2422,-51.9609 3.3027,-42.7744 4.9395,-101.983 4.9395,-177.7813 v -28.1973 l -0.039,-0.3457 c -4.8672,-42.6696 -14.5841,-75.1318 -29.9687,-97.4863 -15.3847,-22.3545 -37.0702,-34.2148 -63.0118,-34.2148 z m 0,12.207 c 22.3977,0 39.3682,9.1874 52.9551,28.9297 13.5536,19.6939 23.1069,50.285 27.8555,91.6543 v 27.4531 c 0,75.6219 -1.6444,134.6223 -4.9043,176.8418 -1.63,21.1098 -3.6695,38.0315 -6.0625,50.6191 -2.354,12.3822 -5.3403,20.6193 -7.4863,23.7852 -13.9863,15.4972 -27.789,22.6023 -42.0508,22.8027 -17.6613,-3.8606 -30.4407,-9.9153 -38.5547,-17.6132 -8.2014,-7.7809 -12.1155,-17.1229 -12.1348,-29.459 7.5091,-121.7625 11.2774,-192.2123 11.2774,-212.8106 v -8.9844 h -13.0059 l -1.5879,3.6934 c -22.7529,52.9321 -45.7137,91.4362 -68.289,115.4063 -13.9785,10.2979 -29.2054,15.3535 -46.3907,15.3535 -15.1301,0 -30.5104,-7.3483 -46.584,-23.4219 -16.0735,-16.0736 -32.4728,-40.7637 -48.7753,-74.002 l -1.6758,-3.416 h -12.791 v 93.0176 c 0,42.1261 1.8233,81.9838 5.4453,119.6113 -4.2865,15.636 -10.2608,26.9737 -17.4629,34.1758 -7.3483,7.3483 -15.8379,10.8184 -26.7754,10.8184 h -8.4024 c -16.8659,0 -28.2016,-6.6094 -36.6562,-21.4141 -8.4546,-14.8047 -13.1836,-38.3694 -13.1836,-70.4414 v -0.092 -0.09 c -1.9191,-64.4513 -2.8783,-114.8128 -2.8789,-151.0371 v -0.014 c 0,-0.01 0,-0.02 0,-0.027 0.3201,-45.819 1.6824,-82.3423 4.0586,-109.4316 2.3756,-27.082 6.1583,-45.0818 9.6778,-52.0078 7.9497,-15.3196 25.2028,-26.0581 53.7949,-31.4961 h 10.3984 c 16.2273,0 35.2952,10.5936 56.6758,33.8047 21.3806,23.211 44.7527,58.612 69.7363,106.0332 l 1.7168,3.2598 h 10.3536 l 1.5839,-3.7032 c 21.4279,-50.0778 44.1277,-87.3584 67.6348,-111.7949 23.5071,-24.4365 47.4244,-36.0039 72.4902,-36.0039 z"
               id="path3275" /></g><g
             id="path3180"><path
               style="color:#000000;-inkscape-font-specification:'Fruity Juice, Normal';-inkscape-stroke:none"
               d="m 3092.3161,3835.4199 q 14.1656,38.6554 14.1656,75.6302 v 11.2845 q 0,94.8378 -92.6769,162.3047 -57.623,36.4945 -123.1691,36.4945 h -19.6879 q -124.8497,0 -179.1114,-106.3624 -11.2845,-30.4921 -14.1656,-67.2268 0,-114.5256 75.8702,-179.1114 76.1104,-64.8258 173.109,-64.8258 96.7586,0 165.6661,131.8125 z m -261.4642,16.3265 q -38.1753,32.1729 -38.1753,92.9171 v 8.4033 q 0,46.5786 75.6302,55.9423 h 25.21 q 100.8402,-12.9652 100.8402,-95.0779 0,-69.3876 -55.222,-88.1151 -18.0072,-6.2425 -35.0539,-6.2425 -35.054,0 -73.2292,32.1728 z"
               id="path3279" /><path
               style="color:#000000;-inkscape-font-specification:'Fruity Juice, Normal';-inkscape-stroke:none"
               d="m 2926.6504,3697.5039 c -66.0255,0 -125.3537,22.2341 -177.0684,66.2813 -51.9354,44.2114 -78.0156,106.062 -78.0156,183.7597 v 0.2383 l 0.019,0.2383 c 1.959,24.9778 6.7842,47.9514 14.5254,68.8691 l 0.125,0.336 0.1621,0.3183 c 37.0357,72.5964 99.5824,109.6934 184.5489,109.6934 h 19.6875 c 44.8302,0 87.1364,-12.552 126.4355,-37.4414 l 0.168,-0.1055 0.1582,-0.1172 c 62.8848,-45.7789 95.1894,-102.0267 95.1894,-167.2402 v -11.2832 c 0,-25.4294 -4.8789,-51.3698 -14.539,-77.7305 l -0.1367,-0.375 -0.1836,-0.3535 c -46.4818,-88.9145 -103.7986,-135.0879 -171.0762,-135.0879 z m 0,12.207 c 61.6381,0 114.6945,41.5853 160.043,128.1465 9.1439,25.0601 13.6836,49.4306 13.6836,73.1934 v 11.2832 c 0,61.175 -29.4261,113.0883 -89.9864,157.2363 -37.4882,23.7073 -77.2471,35.459 -119.7558,35.459 h -19.6875 c -81.365,0 -138.1663,-33.7103 -173.4922,-102.6992 -7.2143,-19.5923 -11.79,-41.2537 -13.6738,-65.0371 0.056,-74.8776 24.5487,-132.3558 73.7167,-174.211 v 0 0 c 49.7657,-42.3872 105.8446,-63.3692 169.1504,-63.3692 z m -22.5684,103.7579 c -25.2368,-1e-4 -51.0099,11.5675 -77.164,33.6093 -26.8978,22.6686 -40.3457,55.8111 -40.3457,97.586 v 8.4023 c 0,17.1781 7.4734,31.8965 21.3808,42.1836 13.9074,10.2871 33.7811,16.6194 59.6035,19.8164 l 0.3731,0.047 h 25.9785 l 0.3867,-0.049 c 34.4217,-4.4257 60.956,-14.8155 79.0391,-31.8653 18.083,-17.0497 27.1269,-40.6473 27.1269,-69.2676 0,-23.9388 -4.7669,-44.0571 -14.7363,-59.9648 -9.9626,-15.8969 -25.1159,-27.3052 -44.5898,-33.918 -0.01,0 -0.01,0 -0.016,0 -12.5627,-4.3534 -24.9324,-6.5761 -37.0371,-6.5761 z m 0,12.2089 c 10.6194,0 21.6112,1.9399 33.0528,5.9063 l 0.02,0.01 0.019,0.01 c 17.3216,5.8742 29.7672,15.3895 38.2051,28.8535 8.4379,13.4639 12.8731,31.1609 12.8731,53.4804 0,26.1215 -7.7627,45.7419 -23.293,60.3848 -15.4767,14.5923 -39.2621,24.3464 -71.8926,28.5879 h -24.293 c -24.4418,-3.058 -42.3025,-9.1448 -53.5586,-17.4707 -11.3026,-8.3604 -16.4335,-18.4929 -16.4335,-32.3672 v -8.4023 c 0,-39.2174 12.0013,-68.0214 36.0039,-88.25 24.746,-20.8552 47.795,-30.7364 69.2968,-30.7364 z"
               id="path3281" /></g><g
             id="path3182"><path
               style="color:#000000;-inkscape-font-specification:'Fruity Juice, Normal';-inkscape-stroke:none"
               d="m 3361.4634,3675.036 q 88.5953,0 117.6469,64.3456 5.5222,19.4478 5.5222,33.6134 -9.844,64.5858 -64.3457,64.5858 -50.4201,-14.4058 -50.4201,-47.7791 h -13.9255 q -72.9891,0 -100.8402,58.8235 189.9157,23.5294 227.8508,59.3036 38.1752,35.5342 38.1752,72.5089 v 16.8067 q 0,98.9195 -176.4703,134.4536 -40.8163,5.5222 -95.318,5.5222 h -2.6411 q -67.2268,-7.4429 -67.2268,-58.8234 9.6038,-55.9423 53.0612,-55.9423 h 61.7046 q 59.0635,0 103.7213,-25.2101 0,-16.8067 -128.4512,-32.4129 -128.2111,-15.6062 -129.4116,-104.9218 v -8.4034 q 0,-76.5905 95.318,-142.8569 59.7838,-33.6134 126.0503,-33.6134 z"
               id="path3285" /><path
               style="color:#000000;-inkscape-font-specification:'Fruity Juice, Normal';-inkscape-stroke:none"
               d="m 3361.4629,3668.9316 c -45.2097,0 -88.3453,11.5154 -129.041,34.3965 l -0.2539,0.1426 -0.2403,0.166 c -64.4503,44.8068 -97.9375,94.2766 -97.9375,147.8692 v 8.4453 0.041 c 0.4197,31.2295 12.3403,57.0043 35.2109,75.5469 22.8706,18.5425 56.1373,30.0652 99.5664,35.3515 42.6868,5.1863 74.6589,10.486 95.5821,15.7657 10.4615,2.6398 18.1841,5.3234 22.7871,7.6894 0.7195,0.3699 0.8216,0.5787 1.3808,0.9238 -27.3011,13.9603 -58.5911,21.0801 -94.2832,21.0801 h -61.705 c -15.7955,0 -29.4332,5.3595 -39.4219,15.8906 -9.9888,10.5311 -16.3232,25.719 -19.6543,45.1231 l -0.088,0.5137 v 0.5195 c 0,18.4579 6.3604,34.0263 18.8906,44.9902 12.5302,10.9639 30.5952,17.3349 53.7676,19.9004 l 0.3359,0.037 h 2.9766 c 36.5406,0 68.5681,-1.8463 96.1367,-5.5762 l 0.1953,-0.027 0.1914,-0.039 c 59.3607,-11.9528 104.288,-29.2242 134.8477,-52.5078 30.5597,-23.2836 46.5215,-53.1416 46.5215,-87.9297 v -16.8066 c 0,-26.7403 -13.8864,-52.5486 -40.0899,-76.9492 l -0.012,-0.01 c -14.2539,-13.4351 -40.1855,-24.1793 -78.5703,-34.1699 -36.5062,-9.5016 -84.642,-17.9707 -143.8086,-25.543 18.1531,-32.1299 47.5242,-47.8594 91.1914,-47.8593 h 8.4414 c 1.3825,10.2119 6.0135,19.4924 13.8906,26.957 9.4335,8.9393 22.9307,15.613 40.336,20.5859 l 0.8222,0.2363 h 0.8555 c 19.3728,0 35.7215,-5.9581 47.6621,-17.9433 11.9407,-11.9852 19.311,-29.4701 22.7188,-51.8281 l 0.068,-0.4571 v -0.4629 c 0,-10.2369 -1.966,-21.9394 -5.7539,-35.2793 l -0.123,-0.4335 -0.1856,-0.4122 c -20.3253,-45.018 -62.6696,-67.9375 -123.2109,-67.9375 z m 0,12.209 c 57.3976,0 93.4275,19.8579 111.8926,60.3653 3.423,12.1687 5.0928,22.5525 5.1504,31.0136 -3.1837,20.4504 -9.7722,35.1374 -19.2071,44.6075 -9.3508,9.3857 -21.6863,14.1348 -38.2246,14.291 -15.7168,-4.596 -27.1758,-10.5662 -34.4043,-17.416 -7.3732,-6.987 -10.6992,-14.6138 -10.6992,-24.2012 v -6.1035 h -20.0293 c -50.2992,0 -86.9075,21.2367 -106.3574,62.3164 l -3.6133,7.6308 8.3789,1.0391 c 63.1425,7.823 113.579,16.6647 151.1348,26.4394 37.5558,9.7748 62.2408,20.8365 73.2793,31.2461 l 0.014,0.014 0.016,0.014 c 24.6772,22.97 36.2304,45.492 36.2304,68.041 v 16.8066 c 0,31.1582 -13.4492,56.6846 -41.7129,78.2188 -28.2313,21.5096 -71.4807,38.472 -129.666,50.207 -26.8127,3.6165 -58.2614,5.4453 -94.3066,5.4453 h -2.1973 c -21.5175,-2.4138 -37.0024,-8.3048 -46.8437,-16.916 -9.7744,-8.5525 -14.5823,-19.7997 -14.6836,-35.3359 3.0956,-17.5729 8.7426,-30.1986 16.3535,-38.2227 7.6983,-8.1163 17.3883,-12.082 30.5645,-12.082 h 61.705 c 40.2441,0 75.9476,-8.625 106.7227,-25.9981 l 3.1035,-1.7519 v -3.5645 c 0,-3.3444 -1.6668,-6.2933 -3.7168,-8.4199 -2.05,-2.1266 -4.5743,-3.7698 -7.625,-5.3379 -6.1013,-3.1362 -14.4359,-5.9056 -25.3828,-8.6679 -21.8935,-5.5246 -54.1475,-10.8291 -97.0938,-16.0469 v 0 c -42.0439,-5.1179 -73.0834,-16.2838 -93.3496,-32.7149 -20.2666,-16.4313 -30.3128,-37.9143 -30.6934,-66.2285 v -8.3222 c 0,-48.4666 29.9979,-94.1789 92.4766,-137.6778 38.9346,-21.8352 79.7411,-32.6875 122.7871,-32.6875 z"
               id="path3287" /></g></g></g></g></g></svg>
