<?xml version="1.0" encoding="UTF-8"?><svg id="svg5" xmlns="http://www.w3.org/2000/svg" viewBox="0 0 4358.57 1200"><g id="layer1"><g id="g285"><g id="g1347"><g id="text499-6"><g id="path3174"><path id="path3261" d="m785.66,218.24c102.55,0,164.02,89.31,184.39,267.93v59.09c0,321.24-13.92,501.56-41.77,540.95-31.92,35.66-65.54,53.48-100.85,53.48-79.46-16.98-119.19-54.67-119.19-113.08,15.96-258.76,23.94-409.19,23.94-451.3v-6.11h-6.11c-48.9,113.76-98.31,196.96-148.23,249.59-31.92,23.77-67.58,35.66-106.97,35.66-72.67,0-143.98-71.31-213.93-213.93h-6.11v184.39c0,89.99,3.91,175.05,11.72,255.19-19.02,71.31-54.67,106.97-106.97,106.97h-17.83c-79.12,0-118.68-69.27-118.68-207.82-4.07-136.85-6.11-243.82-6.11-320.9,1.36-194.92,11.55-311.05,30.56-348.41,19.36-37.35,60.78-61.97,124.29-73.86h23.43c79.8,0,173.01,101.19,279.64,303.58h5.6c91.69-214.27,194.75-321.41,309.19-321.41Z" fill="#28150f" stroke-width="0"/><path id="path3263" d="m785.66,205.29c-61.26,0-119.27,29.03-172.46,84.32-50.09,52.07-96.62,127.79-140.48,226.63-50-92.75-97.25-164.25-142.2-213.05-47.85-51.95-93.91-80.07-139.29-80.07h-24.63l-1.18.22c-65.68,12.29-111.64,38.64-133.4,80.63l-.02.04-.03.04c-11.55,22.68-18.12,61.22-23.26,119.86S.68,560.57,0,658.24v.09c0,77.31,2.04,184.36,6.12,321.29v-.39c0,70.51,9.75,124.42,31.38,162.29,21.62,37.87,56.92,58.48,100.26,58.48h17.83c29.09,0,55.05-10.47,75.12-30.53,20.07-20.07,34.47-48.96,44.36-86.05l.6-2.26-.23-2.33c-7.77-79.67-11.66-164.33-11.66-253.94v-143.46c29.39,54.59,59.19,97.92,89.95,128.68,37.21,37.21,76.57,57.28,117.14,57.28s80.74-12.93,114.7-38.22l.89-.67.77-.81c44.68-47.12,87.97-116.67,130.71-208.68-2.68,68.97-10.09,203.42-22.64,406.79l-.03.4v.4c0,32.14,11.54,60.33,33.83,81.47,22.29,21.14,54.39,35.47,95.6,44.27l1.34.29h1.37c39.67,0,77-20.37,110.51-57.79l.5-.56.43-.61c9.36-13.24,15.06-32.8,20.42-61.02,5.37-28.22,9.74-64.86,13.24-110.24,7.01-90.75,10.48-216.36,10.48-377.17v-59.82l-.08-.73c-10.33-90.52-30.94-159.39-63.58-206.82-32.64-47.43-78.65-72.59-133.68-72.59h0Zm0,25.9c47.52,0,83.52,19.49,112.34,61.37,28.75,41.78,49.02,106.68,59.1,194.45v58.24c0,160.43-3.49,285.6-10.4,375.17-3.46,44.78-7.79,80.68-12.86,107.39-4.99,26.27-11.33,43.74-15.88,50.46-29.67,32.88-58.95,47.95-89.21,48.38-37.47-8.19-64.58-21.04-81.79-37.37-17.41-16.51-25.71-36.34-25.75-62.53,15.93-258.3,23.93-407.75,23.93-451.45v-19.06h-27.59l-3.37,7.84c-48.27,112.3-96.99,193.99-144.89,244.84-29.65,21.84-61.95,32.56-98.41,32.56-32.1,0-64.73-15.59-98.83-49.69s-68.89-86.48-103.48-157l-3.56-7.25h-27.14v197.34c0,89.37,3.87,173.94,11.55,253.77-9.09,33.17-21.77,57.22-37.05,72.5-15.59,15.59-33.6,22.95-56.8,22.95h-17.83c-35.78,0-59.83-14.02-77.77-45.43-17.94-31.41-27.97-81.4-27.97-149.44v-.39c-4.07-136.73-6.11-243.58-6.11-320.43v-.09c.68-97.21,3.57-174.69,8.61-232.16,5.04-57.45,13.06-95.64,20.53-110.34,16.87-32.5,53.47-55.28,114.13-66.82h22.06c34.43,0,74.87,22.47,120.23,71.72,45.36,49.24,94.95,124.35,147.95,224.95l3.64,6.92h21.96l3.36-7.86c45.46-106.24,93.62-185.33,143.49-237.17,49.87-51.84,100.61-76.38,153.79-76.38h0Z" fill="#28150f" stroke-width="0"/></g><g id="path3176"><path id="path3267" d="m1208.43,372.07c82.18,0,129.72,67.41,142.62,202.22,7.81,72.33,11.72,131.76,11.72,178.28,0,198.99-15.79,318.18-47.37,357.58-30.56,27.51-60.28,41.26-89.14,41.26h-12.22c-75.05-13.24-112.57-50.77-112.57-112.57,15.62-139.57,23.43-239.06,23.43-298.49,0-66.9-11.89-150.09-35.66-249.59,17.32-79.12,57.05-118.68,119.19-118.68h0Zm-19.36-55.01c-40.75,0-75.73-14.77-104.93-44.31-28.86-29.88-43.3-65.71-43.3-107.48s14.43-77.93,43.3-107.48c29.2-29.88,64.18-44.82,104.93-44.82s76.07,14.94,104.93,44.82c28.86,29.54,43.3,65.37,43.3,107.48s-14.43,77.59-43.3,107.48c-28.86,29.54-63.84,44.31-104.93,44.31Z" fill="#28150f" stroke-width="0"/><path id="path3269" d="m1189.08.01c-43.92,0-82.89,16.69-114.19,48.72-31.01,31.74-46.98,71.46-46.98,116.53,0,44.75,15.98,84.43,46.93,116.48l.05.05.05.05c31.32,31.68,70.26,48.16,114.14,48.16s83.18-16.48,114.19-48.22l.03-.03.03-.03c30.96-32.05,46.93-71.72,46.93-116.48s-15.95-84.74-46.93-116.47l-.02-.02c-31-32.08-70.01-48.77-114.23-48.77h0Zm0,25.9c37.95,0,68.88,13.2,95.61,40.87l.03.03.03.03c26.71,27.34,39.61,59.28,39.61,98.43s-12.89,70.75-39.65,98.46c0,0,0,.02-.02.02-26.71,27.31-57.65,40.36-95.61,40.36s-68.58-13.05-95.65-40.41c-26.74-27.7-39.63-59.67-39.63-98.44s12.9-71.08,39.61-98.42c27.1-27.73,58.08-40.93,95.67-40.93h0Zm19.35,333.2c-33.82,0-63.28,11.28-85.54,33.44-22.26,22.16-37.3,54.28-46.3,95.42l-.63,2.89.69,2.88c23.62,98.86,35.3,181.22,35.3,246.58,0,58.29-7.76,157.69-23.35,297.05l-.08.72v.73c0,33.52,10.66,62.38,31.93,83.65,21.28,21.28,52.11,34.75,91.33,41.67l1.12.19h13.36c32.98,0,65.73-15.72,97.8-44.58l.78-.7.66-.82c19.12-23.85,30.24-64.81,38.26-125.34,8.02-60.53,11.95-140.5,11.95-240.34,0-47.22-3.95-106.99-11.78-179.56-6.58-68.68-21.85-121.28-47.63-157.84-25.8-36.57-63.24-56.04-107.87-56.04Zm0,25.9c37.55,0,64.96,14.24,86.71,45.07,21.75,30.83,36.7,79.32,43.02,145.43v.16c7.78,72.04,11.64,131.09,11.64,176.89,0,99.15-3.96,178.27-11.73,236.94-7.66,57.79-19.96,95.74-32.24,111.72-28.7,25.58-55.1,37.23-79.59,37.23h-10.84c-35.34-6.36-60.55-18.17-76.66-34.28-16.17-16.17-24.24-36.88-24.32-64.96,15.56-139.17,23.4-238.47,23.4-298.87,0-67.65-11.91-150.67-35.29-249.29,8.35-36.61,21.54-63.14,38.61-80.14,17.47-17.4,38.94-25.9,67.27-25.9h.02Z" fill="#28150f" stroke-width="0"/></g><g id="path3178"><path id="path3273" d="m2263.33,218.24c102.55,0,164.02,89.31,184.39,267.93v59.09c0,321.24-13.92,501.56-41.77,540.95-31.92,35.66-65.54,53.48-100.85,53.48-79.46-16.98-119.19-54.67-119.19-113.08,15.96-258.76,23.94-409.19,23.94-451.3v-6.11h-6.11c-48.9,113.76-98.31,196.96-148.23,249.59-31.92,23.77-67.58,35.66-106.97,35.66-72.67,0-143.98-71.31-213.93-213.93h-6.11v184.39c0,89.99,3.9,175.05,11.72,255.19-19.02,71.31-54.67,106.97-106.97,106.97h-17.83c-79.12,0-118.68-69.27-118.68-207.82-4.07-136.85-6.11-243.82-6.11-320.9,1.36-194.92,11.55-311.05,30.56-348.41,19.36-37.35,60.78-61.97,124.29-73.86h23.43c79.8,0,173.01,101.19,279.64,303.58h5.6c91.69-214.27,194.75-321.41,309.19-321.41Z" fill="#28150f" stroke-width="0"/><path id="path3275" d="m2263.33,205.29c-61.26,0-119.26,29.03-172.46,84.32-50.09,52.07-96.62,127.79-140.48,226.63-50-92.75-97.25-164.25-142.2-213.05-47.85-51.95-93.91-80.07-139.29-80.07h-24.63l-1.18.22c-65.68,12.29-111.64,38.64-133.4,80.63l-.02.04-.03.04c-11.55,22.68-18.12,61.22-23.26,119.86-5.14,58.65-8.03,136.67-8.71,234.33v.09c0,77.31,2.04,184.36,6.12,321.29v-.39c0,70.51,9.75,124.42,31.38,162.29s56.92,58.48,100.26,58.48h17.83c29.09,0,55.05-10.47,75.12-30.53,20.07-20.07,34.47-48.96,44.36-86.05l.6-2.26-.23-2.33c-7.77-79.67-11.66-164.33-11.66-253.94v-143.46c29.39,54.59,59.19,97.92,89.95,128.68,37.21,37.21,76.57,57.28,117.14,57.28s80.74-12.93,114.7-38.22l.9-.67.77-.81c44.68-47.12,87.97-116.67,130.71-208.68-2.68,68.97-10.09,203.42-22.64,406.79l-.03.4v.4c0,32.14,11.54,60.33,33.83,81.47,22.29,21.14,54.39,35.47,95.6,44.27l1.34.29h1.37c39.67,0,77-20.37,110.51-57.79l.5-.56.43-.61c9.36-13.24,15.05-32.8,20.42-61.02,5.37-28.22,9.74-64.86,13.24-110.24,7.01-90.75,10.48-216.36,10.48-377.17v-59.82l-.08-.73c-10.33-90.52-30.94-159.39-63.58-206.82-32.64-47.43-78.65-72.59-133.68-72.59h0Zm0,25.9c47.52,0,83.52,19.49,112.35,61.37,28.75,41.78,49.02,106.68,59.1,194.45v58.24c0,160.43-3.49,285.6-10.4,375.17-3.46,44.78-7.78,80.68-12.86,107.39-4.99,26.27-11.33,43.74-15.88,50.46-29.67,32.88-58.95,47.95-89.21,48.38-37.47-8.19-64.58-21.04-81.79-37.37-17.4-16.51-25.7-36.33-25.74-62.5,15.93-258.32,23.93-407.78,23.93-451.48v-19.06h-27.59l-3.37,7.84c-48.27,112.3-96.98,193.98-144.88,244.84-29.66,21.85-61.96,32.57-98.42,32.57-32.1,0-64.73-15.59-98.83-49.69s-68.89-86.48-103.48-157l-3.56-7.25h-27.14v197.34c0,89.37,3.87,173.93,11.55,253.76-9.09,33.17-21.77,57.22-37.05,72.5-15.59,15.59-33.6,22.95-56.8,22.95h-17.83c-35.78,0-59.83-14.02-77.77-45.43-17.94-31.41-27.97-81.4-27.97-149.44v-.39c-4.07-136.73-6.11-243.58-6.11-320.43v-.09c.68-97.21,3.57-174.69,8.61-232.16,5.04-57.45,13.06-95.64,20.53-110.34,16.87-32.5,53.47-55.28,114.13-66.82h22.06c34.43,0,74.88,22.47,120.24,71.72,45.36,49.24,94.94,124.35,147.95,224.95l3.64,6.92h21.97l3.36-7.86c45.46-106.24,93.62-185.33,143.49-237.17,49.87-51.84,100.61-76.38,153.79-76.38h0Z" fill="#28150f" stroke-width="0"/></g><g id="path3180"><path id="path3279" d="m3435.9,533.54c20.03,54.67,30.05,108.16,30.05,160.45v23.94c0,134.13-65.54,248.91-196.62,344.33-81.5,51.62-168.6,77.42-261.31,77.42h-41.77c-176.58,0-303.24-75.22-379.99-225.65-15.96-43.13-25.98-90.67-30.05-142.62,0-161.98,53.65-288.64,160.96-379.99,107.65-91.69,230.06-137.53,367.25-137.53s254,93.21,351.46,279.64h0Zm-554.7,34.64c-53.99,45.5-80.99,111.21-80.99,197.12v17.83c0,65.88,53.48,105.44,160.45,118.68h53.48c142.62-18.34,213.93-85.57,213.93-201.71,0-98.14-39.05-160.45-117.15-186.94-25.47-8.83-50.26-13.24-74.37-13.24-49.58,0-101.36,22.75-155.36,68.26h0Z" fill="#28150f" stroke-width="0"/><path id="path3281" d="m3084.43,240.94c-140.07,0-265.94,47.17-375.65,140.62-110.18,93.8-165.51,225.01-165.51,389.85v.51l.04.51c4.16,52.99,14.39,101.73,30.82,146.11l.27.71.34.68c78.57,154.01,211.27,232.72,391.52,232.72h41.77c95.11,0,184.86-26.63,268.24-79.43l.36-.22.34-.25c133.41-97.12,201.95-216.45,201.95-354.8v-23.94c0-53.95-10.35-108.98-30.84-164.91l-.29-.8-.39-.75c-98.61-188.63-220.21-286.59-362.94-286.59h0Zm0,25.9c130.77,0,243.33,88.22,339.53,271.86,19.4,53.17,29.03,104.87,29.03,155.28v23.94c0,129.78-62.43,239.92-190.91,333.58-79.53,50.3-163.88,75.23-254.06,75.23h-41.77c-172.62,0-293.12-71.52-368.07-217.88-15.31-41.57-25.01-87.52-29.01-137.98.12-158.85,52.08-280.79,156.39-369.59h0c105.58-89.93,224.55-134.44,358.86-134.44h0Zm-47.88,220.12c-53.54,0-108.22,24.54-163.7,71.3-57.06,48.09-85.59,118.4-85.59,207.03v17.83c0,36.44,15.85,67.67,45.36,89.49,29.5,21.82,71.67,35.26,126.45,42.04l.79.1h55.11l.82-.1c73.03-9.39,129.32-31.43,167.68-67.6,38.36-36.17,57.55-86.23,57.55-146.95,0-50.79-10.11-93.47-31.26-127.22-21.14-33.73-53.28-57.93-94.6-71.96h-.03c-26.65-9.24-52.89-13.95-78.57-13.95h0Zm0,25.9c22.53,0,45.85,4.12,70.12,12.53l.04.02.04.02c36.75,12.46,63.15,32.65,81.05,61.21,17.9,28.56,27.31,66.11,27.31,113.46,0,55.42-16.47,97.04-49.42,128.11-32.83,30.96-83.3,51.65-152.52,60.65h-51.54c-51.85-6.49-89.75-19.4-113.63-37.06-23.98-17.74-34.86-39.23-34.86-68.67v-17.83c0-83.2,25.46-144.31,76.38-187.22,52.5-44.24,101.4-65.21,147.01-65.21h0Z" fill="#28150f" stroke-width="0"/></g><g id="path3182"><path id="path3285" d="m4006.9,193.28c125.3,0,208.5,45.5,249.59,136.51,7.81,27.51,11.72,51.28,11.72,71.31-13.92,91.35-59.43,137.02-136.51,137.02-71.31-20.38-106.97-54.16-106.97-101.36h-29.54c-103.23,0-174.54,41.6-213.93,124.79,268.61,33.28,429.74,75.22,483.39,125.81,53.99,50.26,80.99,101.53,80.99,153.83v35.66c0,139.91-124.79,234.99-374.38,285.25-57.73,7.81-125.14,11.71-202.22,11.71h-5.6c-95.08-10.53-142.62-52.13-142.62-124.79,13.58-79.12,51.11-118.68,112.57-118.68h130.91c83.54,0,156.88-17.83,220.05-53.48,0-23.77-90.84-46.69-272.51-68.76-181.34-22.07-272.85-96.27-274.55-222.59v-17.83c0-108.33,67.41-209.35,202.22-303.07,84.56-47.54,173.69-71.31,267.42-71.31h0Z" fill="#28150f" stroke-width="0"/><path id="path3287" d="m4006.89,180.33c-95.91,0-187.43,24.43-273.76,72.97l-.54.3-.51.35c-136.73,95.06-207.78,200.01-207.78,313.71v18c.89,66.25,26.18,120.94,74.7,160.27,48.52,39.34,119.1,63.78,211.23,75,90.56,11,158.39,22.25,202.78,33.45,22.19,5.6,38.58,11.29,48.34,16.31,1.53.78,1.74,1.23,2.93,1.96-57.92,29.62-124.3,44.72-200.02,44.72h-130.91c-33.51,0-62.44,11.37-83.63,33.71-21.19,22.34-34.63,54.56-41.7,95.73l-.19,1.09v1.1c0,39.16,13.49,72.19,40.08,95.45,26.58,23.26,64.91,36.78,114.07,42.22l.71.08h6.31c77.52,0,145.47-3.92,203.96-11.83l.41-.06.41-.08c125.93-25.36,221.25-62,286.08-111.4,64.83-49.4,98.7-112.74,98.7-186.54v-35.66c0-56.73-29.46-111.48-85.05-163.25l-.03-.02c-30.24-28.5-85.25-51.3-166.69-72.49-77.45-20.16-179.57-38.13-305.09-54.19,38.51-68.16,100.82-101.53,193.46-101.53h17.91c2.93,21.66,12.76,41.35,29.47,57.19,20.01,18.96,48.65,33.12,85.57,43.67l1.74.5h1.81c41.1,0,75.78-12.64,101.12-38.07,25.33-25.43,40.97-62.52,48.2-109.95l.14-.97v-.98c0-21.72-4.17-46.54-12.21-74.85l-.26-.92-.39-.87c-43.12-95.51-132.95-144.13-261.39-144.13h0Zm0,25.9c121.77,0,198.21,42.13,237.38,128.07,7.26,25.82,10.8,47.85,10.93,65.8-6.75,43.39-20.73,74.54-40.75,94.64-19.84,19.91-46.01,29.99-81.09,30.32-33.34-9.75-57.65-22.42-72.99-36.95-15.64-14.82-22.7-31-22.7-51.34v-12.95h-42.49c-106.71,0-184.38,45.05-225.64,132.21l-7.67,16.19,17.78,2.2c133.96,16.6,240.96,35.35,320.63,56.09,79.68,20.74,132.04,44.2,155.46,66.29l.03.03.03.03c52.35,48.73,76.86,96.51,76.86,144.35v35.66c0,66.1-28.53,120.26-88.49,165.94-59.89,45.63-151.65,81.62-275.09,106.52-56.88,7.67-123.6,11.55-200.07,11.55h-4.66c-45.65-5.12-78.5-17.62-99.38-35.89-20.74-18.14-30.94-42.01-31.15-74.97,6.57-37.28,18.55-64.07,34.69-81.09,16.33-17.22,36.89-25.63,64.84-25.63h130.91c85.38,0,161.12-18.3,226.41-55.16l6.58-3.72v-7.56c0-7.1-3.54-13.35-7.89-17.86s-9.7-8-16.18-11.32c-12.94-6.65-30.63-12.53-53.85-18.39-46.45-11.72-114.87-22.97-205.99-34.04h0c-89.2-10.86-155.05-34.55-198.04-69.41-43-34.86-64.31-80.44-65.12-140.5v-17.66c0-102.82,63.64-199.8,196.19-292.09,82.6-46.32,169.17-69.35,260.49-69.35h0Z" fill="#28150f" stroke-width="0"/></g></g></g></g></g></svg>